<svg xmlns="http://www.w3.org/2000/svg" xmlns:xlink="http://www.w3.org/1999/xlink" width="446" height="315" viewBox="0 0 446 315">
  <defs>
    <filter id="Rectangle_491" x="-72" y="-56" width="590" height="459" filterUnits="userSpaceOnUse">
      <feOffset dy="16" input="SourceAlpha"/>
      <feGaussianBlur stdDeviation="24" result="blur"/>
      <feFlood flood-opacity="0.102"/>
      <feComposite operator="in" in2="blur"/>
      <feComposite in="SourceGraphic"/>
    </filter>
    <clipPath id="clip-path">
      <g transform="matrix(1, 0, 0, 1, 0, 0)" filter="url(#Rectangle_491)">
        <rect id="Rectangle_491-2" data-name="Rectangle 491" width="446" height="315" rx="5" transform="translate(63)" fill="#fff"/>
      </g>
    </clipPath>
  </defs>
  <g id="Mask_Group_1" data-name="Mask Group 1" transform="translate(-63)" opacity="0.09" clip-path="url(#clip-path)">
    <g id="_2780153" data-name="2780153" transform="translate(141 -13.165)">
      <path id="Path_989" data-name="Path 989" d="M3.291-278.55a22.479,22.479,0,0,0-3.073,2.982c-.2.478-.137.66.888,1.685a138.608,138.608,0,0,0,15.663,13.227c1.776,1.252,3.233,2.345,3.256,2.413.023.091-.478.41-1.138.706a14.148,14.148,0,0,0-5.35,5.6,18.863,18.863,0,0,0-1.981,6.375c-.455,2.823-.433,5.259.159,10.655a82.489,82.489,0,0,1,.5,9.152c0,5.031-.3,6.83-1.685,9.767-.774,1.616-.8,1.8-.387,2.14.2.182.729.114,1.867-.2a11.306,11.306,0,0,1,4.1-.364c4.1.159,6.306,1.07,14,5.669,7.171,4.3,9.448,5.213,13.728,5.373,2.618.091,2.686.114,2.573.592a179.368,179.368,0,0,0-1.935,18.463c-.5,8.7-.546,10.746-.228,10.928a4.656,4.656,0,0,0,1.548.228c.706.023,2.869.114,4.8.2a67.394,67.394,0,0,0,19.306-2.117c3.028-.774,3.073-.8,2.914-.524a12.749,12.749,0,0,0-.341,2.094,19.4,19.4,0,0,0,.82,7.854c1.32,4.189,2.777,6.261,8.264,11.747,5.783,5.76,7.308,8.014,8.014,11.816.228,1.229.5,1.821.888,1.821a9.363,9.363,0,0,0,1.662-1.525c3.324-3.483,6.648-4.6,16.3-5.418,5.555-.478,7.194-.729,9.539-1.389a12.984,12.984,0,0,0,7.786-5.441l.956-1.48,2.254,3.347A126.827,126.827,0,0,0,141.893-136.1c2,2.117,4.895,4.576,5.213,4.439.3-.114,4.394-4.576,6.966-7.581a140.331,140.331,0,0,0,9.311-12.248l2.254-3.347,1.047.979a25.319,25.319,0,0,0,12.886,5.988c2.755.455,6.01.341,10.814-.387,3.756-.546,7.171-.5,8.879.114a13.265,13.265,0,0,1,2.208,1.184c1.73,1.184,2.026,1.047,1.935-.956a16.952,16.952,0,0,1,2.573-9.789,69.537,69.537,0,0,1,4.918-5.441c4.143-4.235,5.851-6.488,6.853-8.947a9.226,9.226,0,0,0,.524-3.8v-2.527l2.277.3c9.129,1.184,28.686,1.867,29.528,1.024.137-.137.137-.387-.023-.683a46.03,46.03,0,0,1-.319-6.443,75.45,75.45,0,0,0-.706-10.677c-.546-4.1-2.14-12.931-2.527-13.887-.091-.3.137-.364,1.525-.364a10.276,10.276,0,0,0,6.033-1.958c3.369-2.186,5.623-4.986,9.084-11.224,3.256-5.9,5.578-8.947,8.31-10.951,1.229-.888,1.412-1.525.615-1.935-1.662-.842-2.459-2.55-2.459-5.213a47.389,47.389,0,0,1,.683-5.6c.364-2.231.683-4.53.683-5.1a13.329,13.329,0,0,0-2.413-7.627,2.641,2.641,0,0,1-.524-.865c.046-.046,1.093-.8,2.3-1.707a16.768,16.768,0,0,1,2.459-1.639.225.225,0,0,0,.228-.182,9.525,9.525,0,0,1,1.776-1.571c4.735-3.688,16.278-14.252,16.574-15.162.228-.683-.455-1.07-1.935-1.07h-1.229l.524.569.524.569L287.8-278.5c-11.543,10.564-17.667,15.595-24.61,20.239a89.222,89.222,0,0,1-21.241,10.586,52.123,52.123,0,0,1-8.97,2.368,41.468,41.468,0,0,0-4.212.888,2.765,2.765,0,0,1-1.343.2c-.319-.114-1.07.433-1.07.774a18.594,18.594,0,0,0,1.73,2.094c10.085,11.36,16.46,26,18.964,43.6.433,3.005.569,4.667,1.161,14.343.137,2.117.3,4.143.364,4.462l.114.615-6.9-.091c-3.8-.046-8.7-.182-10.882-.319-21.719-1.32-37.61-6.238-50.883-15.686-1.73-1.252-2.322-1.8-2.459-2.322-.2-.774-.729-1.093-1.138-.683-.182.182-.319,2.049-.41,5.9a49.639,49.639,0,0,1-.615,8.128c-2.254,12.2-7.331,23.017-16.574,35.424-3.574,4.781-11.52,14.616-11.77,14.57-.091-.023-1.753-1.707-3.756-3.734a111.013,111.013,0,0,1-20.877-29.642c-4.622-9.4-7.012-16.414-9.789-28.777-.956-4.212-1-4.667-.683-5.009a.9.9,0,0,0,0-1.389c-.273-.228-.956.364-4.257,3.688a78.135,78.135,0,0,1-31.258,19.693,78.622,78.622,0,0,1-26.614,4.166h-4.28l.137-2.459c.82-12.84,1.3-18.236,2.208-24.519a99.3,99.3,0,0,1,8.879-29.482c1.8-3.734,9.289-16.369,9.7-16.392.5,0,.774-.8.433-1.252-.3-.41-.387-.41-2.664.023a71.185,71.185,0,0,1-16.027.023c-12.749-2.3-23.335-7.581-36.676-18.281-2-1.616-5.1-4.166-6.9-5.669L1.4-275.158l.637-.5c.341-.273,1.867-1.434,3.369-2.6,3.8-2.914,3.643-2.709,2.049-2.709H6.092Zm264.476,21.286c1.184,1.776,1.411,2.55,1.548,5.35a24.532,24.532,0,0,1-.41,5.578c-.706,4.508-.706,8.1-.023,9.653a7.676,7.676,0,0,0,1,1.639l.478.524-1.935,2c-2.14,2.208-3.756,4.53-6.443,9.152-5.009,8.651-8.264,11.747-13.455,12.749-2.254.433-2.368.364-2.982-1.594-.273-.933-.524-1.776-.524-1.844a3.244,3.244,0,0,1,1.389-.3,12.985,12.985,0,0,0,7.877-3.961,12.657,12.657,0,0,0,2.823-4.348c3.779-7.854,3.62-7.581,5.191-9.152a7.484,7.484,0,0,1,2.755-1.958c1.616-.615,1.707-1.07.433-2.094-1.981-1.594-2.208-3.506-1.07-8.424,1.184-5.122.979-9.311-.546-11.474-.25-.364-.41-.706-.319-.774a26.857,26.857,0,0,1,3.142-2.095A5.7,5.7,0,0,1,267.767-257.264Zm-244.76.729,1.685,1.047-1.116.569c-2.072,1.024-3.688,3.46-4.485,6.625-.751,2.982-.911,5.464-.933,15.14-.023,10.472,0,10.336-1.32,12.112-.387.5-.433.751-.25,1.047.2.319.524.364,1.707.319,3.483-.182,6.511,1.138,12.613,5.509,4.394,3.142,6.762,4.531,8.993,5.282a12.088,12.088,0,0,0,6.557-.068,2.764,2.764,0,0,1,1.184-.341,39.37,39.37,0,0,1-1,4.3,10.487,10.487,0,0,1-2.368.137c-4.143-.068-7.1-1.207-14.73-5.76-4.872-2.891-7.331-4.121-9.744-4.781a16.7,16.7,0,0,0-6.488-.5c-1.07.182-1.184.182-1.07-.159a29.9,29.9,0,0,0,1.48-6.716c.25-2.869.2-3.825-.5-11.292-1-10.541.114-16.46,3.87-20.512,1.229-1.343,3.8-3.256,4.121-3.073C21.277-257.605,22.1-257.1,23.007-256.535Zm240,2.55c.888,2.345.888,5.054,0,9.243-1.047,5.031-.865,7.49.729,9.22l.433.478-1,.592A14.354,14.354,0,0,0,259-229.83c-.455.8-1.457,2.891-2.254,4.644-1.776,3.939-3.1,5.828-5.1,7.308a15.864,15.864,0,0,1-5.942,2.6l-1.024.137-1.093-2.982c-.592-1.662-1.753-4.417-2.55-6.17-.8-1.73-1.411-3.165-1.366-3.165a10.525,10.525,0,0,1,1.184.683c7.149,4.439,15.754-.023,15.777-8.2a12.234,12.234,0,0,0-3.529-8.4,13.726,13.726,0,0,0-6.488-4.052c-.2-.068.091-.3.8-.569a104.139,104.139,0,0,0,12.977-6.579,5.677,5.677,0,0,1,1.958-.933A8.8,8.8,0,0,1,263.009-253.985Zm-233.9.774a76.9,76.9,0,0,0,11.36,4.576c1,.273,1.844.546,1.89.569a16.208,16.208,0,0,1-2.8.683,20.18,20.18,0,0,0-2.163.933,17.017,17.017,0,0,0-5.327,3.848c-.341.433-.774.8-.956.8-.2,0-.319.114-.273.273a4.2,4.2,0,0,1-.66,1.525c-3.21,5.35-2.573,11.656,1.639,15.845a11,11,0,0,0,11.747,2.732c2.664-.956,6.579-3.848,9.289-6.921a10.934,10.934,0,0,1,1.525-1.548,35.558,35.558,0,0,1-1.3,3.347,112.7,112.7,0,0,0-4.439,13.113l-.637,2.5-1.366.41c-4.508,1.32-8.014.228-14.639-4.622-5.669-4.121-8.583-5.555-11.93-5.851l-1.525-.159.41-.933c.729-1.594.979-3.848.82-6.944-.66-13.3-.364-17.826,1.457-21.56.956-1.958,3.278-4.121,4.462-4.189A34.173,34.173,0,0,1,29.108-253.211Zm20.239,6.6c.865.159.842.159-.683.319a26.7,26.7,0,0,0-2.8.455c-.66.182-1.252.25-1.3.137a3.681,3.681,0,0,0-1.366-.319c-1.434-.182-1.639-.5-.387-.637A41.055,41.055,0,0,1,49.348-246.609Zm14.912-.114a22.137,22.137,0,0,1-1.434,2c-.774,1.047-1.912,2.732-2.527,3.756a9.341,9.341,0,0,1-1.3,1.89,7.679,7.679,0,0,0-1.48,1.161,6.259,6.259,0,0,1-4.371,2.026c-2.413,0-3.916-1.366-3.916-3.6,0-2.982,2.55-5.145,7.49-6.4a20.885,20.885,0,0,1,3.187-.5,16.154,16.154,0,0,0,2.413-.2C63.781-246.791,64.26-246.837,64.26-246.723Zm-22.265,1.252a3.661,3.661,0,0,1,1.093.478,4.769,4.769,0,0,1-1.116.729c-1.093.592-1.138.615-2.618.3a13.207,13.207,0,0,1-1.89-.524c-.319-.182-.273-.273.387-.615a5.226,5.226,0,0,1,2.732-.865C40.765-245.88,41.4-245.676,41.994-245.471Zm206.786.706a15.422,15.422,0,0,1,2.368,1.366l1.024.751-.615.433c-.82.592-.569.933.41.546l.774-.341.82,1.252a5.426,5.426,0,0,1,.751,1.32,19.683,19.683,0,0,1-2.072,1.047,3.206,3.206,0,0,1-.387-1.047,10.844,10.844,0,0,0-4.781-5.783C246-245.88,246.891-245.653,248.78-244.765ZM50.691-244.7c-2.3,1.594-3.438,4.189-2.823,6.42a5.526,5.526,0,0,0,6.784,3.552c.387-.114.729-.137.729-.023a16.056,16.056,0,0,1-3.1,3.848,13.132,13.132,0,0,1-2.6,1.707,6.457,6.457,0,0,1-3.756.706,8.607,8.607,0,0,1-3.278-.41,7.616,7.616,0,0,1-4.826-5.464,4.783,4.783,0,0,1,.114-2.755,8.768,8.768,0,0,1,2.618-4.348,12.4,12.4,0,0,1,4.918-2.937,30.991,30.991,0,0,1,5.555-1.024l.751-.023Zm193.081-.41a9.335,9.335,0,0,1,6.4,4.94,6.018,6.018,0,0,1,.637,3.369,5.705,5.705,0,0,1-1.616,4.576c-2.049,2.277-5.441,2.732-8.879,1.229-1.548-.683-4.462-2.413-4.3-2.55a3.446,3.446,0,0,1,1.207.3,9,9,0,0,0,5.646-.114c5.714-2.527,5.009-9.562-1.207-11.77l-.842-.3.8-.023A11.543,11.543,0,0,1,243.772-245.106Zm-2.618,1.184c3.051,1.024,4.895,3.893,4.1,6.329a6.156,6.156,0,0,1-5.282,3.756c-2.413,0-5.373-1.844-7.6-4.781-.706-.933-1.867-2.345-2.55-3.142l-1.229-1.411h1.32a25.8,25.8,0,0,0,4.189-.683C237.215-244.583,239.127-244.583,241.153-243.923Zm-204.168-.023a17.978,17.978,0,0,0,1.8.751l1.07.364L38.739-241.6l-1.116,1.252-2.163-.41a10.889,10.889,0,0,1-2.277-.592c-.068-.091.068-.387.3-.637a19.867,19.867,0,0,1,2.732-2.322A5.373,5.373,0,0,1,36.986-243.945ZM34.071-240.1a10.755,10.755,0,0,0,2.413.569c.66,0,.729.046.569.5-.091.3-.3,1.161-.5,1.935l-.341,1.389-3.1.091c-1.73.046-3.142.068-3.187.068-.273-.159,2.049-5.122,2.39-5.122C32.341-240.667,33.138-240.417,34.071-240.1Zm220.947,2.482a12.794,12.794,0,0,1,.114,4.326c-.114.319-.228.3-.956-.068a9.238,9.238,0,0,0-1.594-.592c-.683-.137-.751-.228-.615-.751.068-.341.159-1.116.2-1.73.091-1.07.137-1.161,1.07-1.639a6.7,6.7,0,0,1,1.252-.546C254.654-238.618,254.882-238.163,255.018-237.616ZM36.644-233.427c.159.592.273,1.093.3,1.116a8.541,8.541,0,0,1-.956.182c-.546.068-2.072.455-3.438.82a10.852,10.852,0,0,1-2.664.546,5.229,5.229,0,0,1-.228-2.072v-1.912l3.347.114,3.347.137Zm216.462.478a9.455,9.455,0,0,1,1.343.751c.41.319.41.364-.068,1.275a11.275,11.275,0,0,1-1.184,1.753c-.683.774-.729.774-1.343.455a4.9,4.9,0,0,1-1.3-1.138,2.977,2.977,0,0,0-.8-.8c-.455,0-.091.774.842,1.753a9.235,9.235,0,0,1,1.024,1.138,10.329,10.329,0,0,1-2.755,1.207c-.41,0-1.184-.66-1.981-1.707l-.524-.683.137.66a4.006,4.006,0,0,0,.592,1.32l.455.637h-1.093a5.225,5.225,0,0,1-3.529-1.07c-.569-.546-.683-1.184-.159-.865.114.091.2.023.2-.091,0-.137-.25-.25-.569-.25-.41,0-.569.114-.569.455,0,.25-.114.455-.25.455a14.116,14.116,0,0,1-3.6-2.641c-.729-.911-.569-1.07.387-.433a17.98,17.98,0,0,0,2.322,1.184,7.492,7.492,0,0,0,3.643.615,6.334,6.334,0,0,0,3.347-.524,9.054,9.054,0,0,0,3.529-3.324C251.512-233.5,251.876-233.518,253.106-232.949ZM55.335-231.674c-.137.319-.341.569-.455.569-.2,0-.091-.319.341-.865C55.563-232.4,55.631-232.289,55.335-231.674Zm-16.6,1.776a18.053,18.053,0,0,0,1.707,1.457c.41.228.387.319-.478,1.594a22.1,22.1,0,0,0-1.571,2.891c-.592,1.389-.706,1.5-1.229,1.389-1.343-.319-4.007-1.958-3.62-2.231,1.571-1.093,4.986-4.28,4.986-4.644,0-.683-.82-.182-3.1,1.912-1.32,1.229-2.482,2.254-2.573,2.3-.3.091-1.89-2.231-2.436-3.552l-.524-1.3,2.641-.387a21.985,21.985,0,0,0,2.755-.524,3.445,3.445,0,0,1,1.138-.114C37.373-231.105,37.6-230.991,38.739-229.9Zm10.723,2.937a28.586,28.586,0,0,1-4.6,3.392l-.842.433,1-1.89,1-1.867,1.32-.159a7.824,7.824,0,0,0,2.117-.5C50.6-228.054,50.6-228.009,49.461-226.962Zm-5.851-.25a3.1,3.1,0,0,1,1.3.478,18.835,18.835,0,0,1-1.07,2.117c-.933,1.685-1.207,1.981-1.89,2.163-.933.273-3.415.3-3.415.046a28.524,28.524,0,0,1,2.573-4.3c.41-.524.842-.933.956-.865C42.2-227.531,42.882-227.371,43.61-227.212Zm67.183,29.96c.091.865.364,2.664.615,4.052.66,3.506.546,7.012-.3,8.651a8.712,8.712,0,0,1-1.252,1.753c-2.14,2.049-5.9,2.049-7.627,0a5.152,5.152,0,0,1-1.047-4.007c.182-2.55,1.07-4.052,4.03-6.853,1.32-1.252,3.028-2.914,3.756-3.688a11.8,11.8,0,0,1,1.5-1.434A4,4,0,0,1,110.794-197.252Zm72.283,6.966a8.628,8.628,0,0,0,1.161,1.412,10.161,10.161,0,0,1,2.96,7.035c0,2.072-.842,3.3-2.55,3.779-1.753.5-3.8-.683-4.849-2.755-1.024-1.981-1.662-5.692-1.8-10.359l-.068-2.755,2.527,1.685A16.944,16.944,0,0,1,183.077-190.285Zm-83.3,3.119a8.167,8.167,0,0,0,.023,2.231c.842,5.259,7.1,6.83,11.133,2.8a17.567,17.567,0,0,0,1.662-1.844c.364-.569.364-.546.364.911.046,5.9-3.529,10.336-8.537,10.655a6.372,6.372,0,0,1-5.578-2c-1.594-1.594-2.117-2.982-2.117-5.578a9.438,9.438,0,0,1,.615-3.483c.524-1.5,2.368-4.963,2.55-4.781A3.366,3.366,0,0,1,99.775-187.166Zm-2.413.615a14.173,14.173,0,0,0-1.685,4.052A8.183,8.183,0,0,1,93.2-180.45c-.888.5.911-2.686,3.1-5.532a10.584,10.584,0,0,1,1.662-1.867C98.067-187.849,97.794-187.257,97.362-186.552Zm91.725,2.072c2,2.982,2.732,4.963,2.846,7.6.091,1.912.046,2.254-.273,2.368a.406.406,0,0,0-.25.524,2.8,2.8,0,0,1-.615,1.48c-1.867,2.846-4.826,3.506-7.968,1.8-2.914-1.594-4.6-4.94-4.872-9.607-.114-1.867-.091-1.912.2-1.116,1.252,3.256,3.529,4.94,6.352,4.69,3.529-.341,5.009-4.895,3.005-9.289-.5-1.093-.5-1.184-.114-.8A27.59,27.59,0,0,1,189.087-184.48Zm5.282,3.347a27.289,27.289,0,0,1,1.457,2.322l.478.979-.729-.023a5.261,5.261,0,0,1-1.525-.273c-.706-.25-.8-.41-1.252-1.981A18.592,18.592,0,0,0,190.544-185C189.724-186.233,193.344-182.545,194.369-181.133Zm-100.855-3.1a18.893,18.893,0,0,0-3.3,9.63,13.465,13.465,0,0,0,1.5,5.874,4.242,4.242,0,0,1,.683,1.958c-.091.25-.046.341.182.25.182-.068.774.3,1.389.865a10.658,10.658,0,0,0,5.009,2.5,10.356,10.356,0,0,0,5.009,0,12.9,12.9,0,0,0,6.375-3.415,15.616,15.616,0,0,0,3.62-6.375,19.582,19.582,0,0,0,.387-6.9c-.478-2.3.046-1.707,1.116,1.229a123.935,123.935,0,0,0,5.965,13.569l2.026,4.007-.546,1.116c-1.981,3.848-5.236,5.35-12.681,5.76-2.186.137-5.009.387-6.261.592a33.087,33.087,0,0,0-8.264,2.573l-1.366.683-.228-.956a8.248,8.248,0,0,0-2.732-3.984c-.637-.478-2.55-1.707-4.28-2.686-3.392-1.935-5.259-3.529-6.329-5.4-1.685-2.869-2.345-6.853-1.935-11.7.114-1.594.25-2.914.273-2.914.023-.023,1.184-.478,2.55-1.024a95.815,95.815,0,0,0,11.042-5.509,9.119,9.119,0,0,1,1.412-.842C94.243-185.345,93.947-184.844,93.514-184.229Zm101.242-.341a85.712,85.712,0,0,0,11.588,3.756c2.322.592,4.326,1.161,4.485,1.252.387.228.342,4.007-.046,5.6-1.024,4.212-3.438,7.581-8.1,11.383-3.392,2.755-4.6,4.3-4.918,6.329l-.137.911-.956-.364c-1.73-.66-5.122-.5-9.812.5-3.711.8-4.326.865-6.488.751a18.489,18.489,0,0,1-10.518-3.939,5.155,5.155,0,0,1-1.32-1.275,7.743,7.743,0,0,1,.774-1.639,95.454,95.454,0,0,0,5.532-13.113c.068-.182.273.364.455,1.252a15.933,15.933,0,0,0,4.986,8.742,13.5,13.5,0,0,0,6.17,3.438c5.487,1.138,10.518-2.3,12.043-8.219a17.413,17.413,0,0,0-.319-7.718,21.083,21.083,0,0,0-4.075-6.807,12.139,12.139,0,0,1-1.343-1.616C192.821-185.345,193.731-185,194.756-184.571Zm-17.029,9.152c.546,1.73.569,1.912.25,2.664a4.839,4.839,0,0,0-.342,1.411c0,.888-.341.683-.683-.41a15.927,15.927,0,0,1-.5-8.7l.387-1.821.159,2.5A16.631,16.631,0,0,0,177.727-175.419ZM95.29-179.266c.068,1.024.046,1.207-.3,1.207a5.175,5.175,0,0,0-1.707,1.594,10.38,10.38,0,0,1-1.457,1.594c-.2,0,.068-2.6.41-3.756.228-.8.41-.979,1.571-1.5a3.835,3.835,0,0,1,1.343-.455C95.176-180.518,95.222-179.9,95.29-179.266Zm119.8.364,1.594.273.159,1.138A11.461,11.461,0,0,1,216-172c-.911,2.072-2.482,4.052-6.375,8.059-2.026,2.072-4.007,4.257-4.417,4.849a18.543,18.543,0,0,0-3.21,9.334v1.3l-.956-.478c-2.413-1.229-5.623-1.411-11-.66-4.781.706-7.149.774-9.858.364a30.733,30.733,0,0,1-12.658-5.282c-1.389-1-1.48-1.116-1.207-1.548.182-.273.592-.956.933-1.548l.637-1.093,1.616,1.389a20.238,20.238,0,0,0,7.331,3.756,21.25,21.25,0,0,0,9.22-.228c4.28-.933,5.623-1.116,7.649-1a7.036,7.036,0,0,1,3.369.842c1.867.911,2.3.751,2.072-.774-.342-2.231.751-3.939,4.371-6.784,3.688-2.914,5.418-4.872,7.08-8.059a15.547,15.547,0,0,0,1.912-7.627c0-2.163.023-2.231.5-2.117C213.265-179.244,214.2-179.061,215.086-178.9Zm-18.873,1.981c.569,0,.979,1.184,1.184,3.278.137,1.548.41,1.5-2.5.433a17.979,17.979,0,0,1-1.867-.774,6.771,6.771,0,0,1,.137-1.935l.25-1.821,1.161.41A10.455,10.455,0,0,0,196.213-176.921ZM77.76-175.76a23.717,23.717,0,0,0,.114,8.879,14.694,14.694,0,0,0,3.21,6.192c1.389,1.5,2.709,2.436,6.056,4.3,3.87,2.163,5.464,3.939,5.737,6.352.182,1.867.455,1.935,2.686.751,4.212-2.254,7.126-2.982,12.977-3.278,5.6-.3,6.807-.433,8.537-.956,3.165-.979,5.874-2.869,6.853-4.781a3,3,0,0,1,.546-.865,5.322,5.322,0,0,1,.66.956l.569.956-.8,1.5c-1.8,3.438-5.282,5.509-10.86,6.466-1.024.182-3.916.5-6.42.706-8.128.66-11.634,1.685-15.185,4.417l-1.457,1.116-.546-1.639c-.933-2.709-2.823-5.259-7.467-9.949-4.53-4.6-5.783-6.147-7.1-8.97a18.345,18.345,0,0,1-1.912-9.107l-.023-3.415,2.049-.706a20.665,20.665,0,0,1,2.095-.683A10.71,10.71,0,0,1,77.76-175.76Zm17.917-1.252a5.873,5.873,0,0,0,.569,1.48l.592,1.138-.774.956a20.755,20.755,0,0,0-2.436,4.03.464.464,0,0,1-.228.341c-.41.25-1.594-2.8-1.594-4.189,0-.341.592-1.161,1.776-2.413C95.267-177.468,95.677-177.741,95.677-177.012Zm16.961,3.324a18.661,18.661,0,0,1-.956,2.686l-.592,1.252-.182-1.093a11.873,11.873,0,0,0-.41-1.8c-.228-.637-.182-.774.615-1.639a13.947,13.947,0,0,0,1.32-1.685l.433-.774.068.82A8.112,8.112,0,0,1,112.638-173.689Zm-13.409,1.5c.341.2.341.364-.2,2.231-.82,2.846-1.525,4.644-1.8,4.644a6.848,6.848,0,0,1-2.891-1.981l-.683-.842.478-.8c.273-.455,1.116-1.707,1.867-2.8l1.389-1.958.729.637A6.5,6.5,0,0,0,99.229-172.186Zm96.051.023c2.026.888,2.049.911,1.981,1.662a10.43,10.43,0,0,1-.888,3.142,19.1,19.1,0,0,1-3.984-2.39l-1.3-1.047.546-.8a6.53,6.53,0,0,0,.683-1.252C192.5-173.37,192.5-173.37,195.279-172.163Zm-85.328.842c.546,2.072.433,2.664-.774,3.825a7.02,7.02,0,0,1-1.116,1c-.068-.091-.8-5.031-.729-5.054.046-.023.478-.25.979-.5a3.352,3.352,0,0,1,1.138-.455A2.648,2.648,0,0,1,109.951-171.321Zm70.917,3.165c-.3,2.914-.068,3.028.615.319.478-1.844.41-1.8,2.231-1.184l1.184.41-.137,2.732a27.488,27.488,0,0,1-.2,2.823,15.15,15.15,0,0,1-3.529-2.413,16.232,16.232,0,0,1-1.958-2.3c-1-1.412-1.024-1.48-.888-2.709a6.139,6.139,0,0,1,.387-1.707c.228-.433.319-.387,1.389.751l1.116,1.229Zm-78.931-3.005,1.138.3.068,3.256.068,3.256-2.277-.091a8.479,8.479,0,0,1-2.527-.319c-.159-.159-.023-.683.41-1.707a19.549,19.549,0,0,0,1.412-4.03c.137-.524.319-.956.41-.956S101.323-171.321,101.938-171.161Zm5.009,2.618.5,2.55-1.161.546a10.442,10.442,0,0,1-1.8.706l-.615.159v-1.32c0-.751.068-2.186.159-3.21l.137-1.867.933-.091a7.738,7.738,0,0,1,1.138-.046A9.8,9.8,0,0,1,106.946-168.543Zm85.442-.342c.956.774,2.14,1.662,2.6,1.935.979.615.956.774-.41,2.186a6.186,6.186,0,0,1-2.5,1.73c-.319,0-1.981-2.937-2.618-4.622l-.5-1.32.774-.66c.433-.364.8-.66.842-.683C190.612-170.319,191.432-169.682,192.388-168.885Zm-3.6,1.457a22.657,22.657,0,0,0,1.389,3.233,7.021,7.021,0,0,1,.8,1.8c-.273.273-3.369.3-4.462.046l-1.161-.273.114-1.457c.455-4.918.319-4.417,1.116-4.439a3.454,3.454,0,0,0,1.184-.2,4.47,4.47,0,0,1,.5-.2A14.379,14.379,0,0,1,188.791-167.428Z" transform="translate(-0.125 280.986)"/>
      <path id="Path_990" data-name="Path 990" d="M21.436-280.115a4.6,4.6,0,0,0-2.163,3.984,4.091,4.091,0,0,0,1.434,3.506,4.074,4.074,0,0,0,4.713.66c.273-.114.319.046.273,1a4.036,4.036,0,0,0,4.03,4.553,5.823,5.823,0,0,0,1.525-.228c.615-.228.615-.228.478.592a5.59,5.59,0,0,0,.774,3.552c1.252,1.73,4.417,2.049,5.646.569.455-.569.592-.478.888.615a4.237,4.237,0,0,0,6.079,2.641,2.917,2.917,0,0,1,.911-.387,12.688,12.688,0,0,1,.3,1.275c.455,2,1.389,2.982,3.278,3.324a5.067,5.067,0,0,0,3.734-1.5l.706-.683.273.911c1,3.347,4.963,4.235,7.558,1.707l.82-.8.25.979a7.357,7.357,0,0,0,.774,1.776,4.777,4.777,0,0,0,3.369,1.821,4.492,4.492,0,0,0,3.324-2.072l.683-1.024.615,1.093a4.853,4.853,0,0,0,5.282,2.368,5.413,5.413,0,0,0,3.142-2.846l.706-1.252.159.706a5.724,5.724,0,0,0,.637,1.548c.592,1.024.592,1.024-.023,1.024a5.1,5.1,0,0,0-3.8,2.8,4.486,4.486,0,0,0-.046,2.732c.2.546.182.569-1.047.683-2.8.3-4.622,2-4.8,4.462a5.975,5.975,0,0,0,.25,2.368l.341,1.024-.774.114c-2.436.41-3.825,3.665-2.6,6.056l.433.888-1.07.137a4.506,4.506,0,0,0-2.641,7.649l.774.842-.933.41a5.241,5.241,0,0,0-2.709,3.3,4.853,4.853,0,0,0,1.047,4.166,2.6,2.6,0,0,1,.524.706c-.046.023-.524.228-1.047.455-3.278,1.434-3.756,5.555-.911,7.991l.933.8h-.8c-3.21,0-4.6,4.075-2.163,6.352l.569.546-.842.615c-2.413,1.753-3.574,3.8-3.574,6.375a5.18,5.18,0,0,0,1.867,4.371,6.225,6.225,0,0,0,6.4,1.434,7.7,7.7,0,0,0,3.051-2.891l.478-.842.911.8a4.684,4.684,0,0,0,5.327.683c1.252-.592,2.573-2.094,2.573-2.937,0-.433.068-.41.751.25a4.946,4.946,0,0,0,3.165,1.412,4.578,4.578,0,0,0,4.075-3.3l.25-.842.82.8c1.685,1.639,3.347,1.867,5.122.706a4.386,4.386,0,0,0,1.753-3.119c0-.683.25-.8.706-.25a4.439,4.439,0,0,0,4.918.774,3.19,3.19,0,0,0,1.594-2.914l.137-1.343,1,.569a4.243,4.243,0,0,0,4.28-.2,4.93,4.93,0,0,0,1.89-3.961c-.068-.842-.023-1,.273-.888a6.2,6.2,0,0,0,1.525.25,4.3,4.3,0,0,0,4.667-3.506c.273-1,.364-1.116.751-.956a4.79,4.79,0,0,0,4.394-1,6.27,6.27,0,0,0,1.366-5.783l-.159-.729,1,1.024a3.99,3.99,0,0,0,1.389,1c.273,0,.228.137-.228.683a3.46,3.46,0,0,0,.3,5.077l.888.8-.569.546a4.92,4.92,0,0,0-1.138,5.35,5.275,5.275,0,0,0,2.026,1.935c.228.091.159.341-.228,1.047a4.663,4.663,0,0,0-.273,3.711,4.8,4.8,0,0,0,3.711,2.573l.615.137-.455.911a5.658,5.658,0,0,0,.979,5.874,5.007,5.007,0,0,0,2.777,1.412c.683,0,.66-.046.2,1.024a6.6,6.6,0,0,0-.091,3.87,5.892,5.892,0,0,0,5.122,3.46l1.252.137-.706.774a3.789,3.789,0,0,0-1.116,2.982,4.885,4.885,0,0,0,2.8,4.348,6.272,6.272,0,0,0,1.776.25h1.116l-.592,1.184c-2.026,4.007.137,8.628,4.075,8.7,1,.023,1.07.068.911.478a8.969,8.969,0,0,0,.228,4.462,5.77,5.77,0,0,0,5.259,3.233c3.688.023,6.511-2.982,6.579-7.035.046-1.412.114-1.662.387-1.548a6.579,6.579,0,0,0,1.434.273,4.46,4.46,0,0,0,4.371-6.557c-.342-.683-.342-.683.273-.683a4.682,4.682,0,0,0,3.939-3.1,5.287,5.287,0,0,0-.319-3.483l-.341-.637,1.116-.137a4.846,4.846,0,0,0,3.574-2.026,3.588,3.588,0,0,0,.637-2.573,3.7,3.7,0,0,0-.615-2.573l-.615-.933,1.184-.341a5.1,5.1,0,0,0,3.848-5.1c0-1.3-.82-3.051-1.571-3.347-.319-.114-.159-.273.8-.729a4.4,4.4,0,0,0,1.5-7.1c-.842-.979-.911-1.161-.478-1.161.546,0,2.049-1.434,2.459-2.368a4.241,4.241,0,0,0-1.229-5.077c-.911-.8-1-.979-.524-.979.546,0,1.776-1.184,2.208-2.163a3.759,3.759,0,0,0-.842-4.508l-.637-.66.546-.41.569-.433.137.729a4.848,4.848,0,0,0,5.3,3.939l.933-.159-.068,1.047a4.885,4.885,0,0,0,1.912,3.961,4.919,4.919,0,0,0,4.166.387c.8-.433.8-.41,1.024,1.116.478,3.392,4.826,4.895,7.672,2.641l.592-.455.273,1.343c.66,3.278,3.711,4.326,6.42,2.163l1-.8.25.979a4.975,4.975,0,0,0,3.438,3.939,3.178,3.178,0,0,0,2.459-.023,4.777,4.777,0,0,0,2.14-1.229l.865-.865.137,1.252c.228,2.163,1.5,3.233,3.8,3.233a5.741,5.741,0,0,0,3.939-1.594,3.021,3.021,0,0,1,.933-.66c.023.046.182.524.341,1.07a5.362,5.362,0,0,0,2.39,2.937,4.617,4.617,0,0,0,4.075-.228,6.041,6.041,0,0,0,1.48-1.229l.433-.592.865.956a5.057,5.057,0,0,0,4.326,1.935,5.139,5.139,0,0,0,4.371-1.981c2.254-2.436,2.094-5.988-.387-8.674l-.933-1.024.66-.342a6.507,6.507,0,0,0,2.55-2.982,6.506,6.506,0,0,0,.182-2.072c-.159-1.958-1.138-3.073-3.779-4.348a4.854,4.854,0,0,1,.729-1.07,4.523,4.523,0,0,0-1.867-7.012l-.956-.433.569-.751a6.676,6.676,0,0,0,1.252-3.392,5.425,5.425,0,0,0-5.168-5.236,6.987,6.987,0,0,1-.979-.068s.2-.433.455-.933a4.733,4.733,0,0,0-.637-5.578,3.989,3.989,0,0,0-4.462-1.32l-.592.228.455-.911a4.951,4.951,0,0,0,.023-4.1,4.475,4.475,0,0,0-3.347-2.186l-1.161-.137.114-1.525a4.057,4.057,0,0,0-.364-2.436,5.123,5.123,0,0,0-.82-1.207c-.546-.455-.455-.637.387-.8a5.048,5.048,0,0,0,2.982-2.618l.433-.911.82.637a5.031,5.031,0,0,0,7.9-2.163l.364-.956.8.524a4,4,0,0,0,4.918-.3,5.067,5.067,0,0,0,1.3-2.55c0-.546-.023-.546.933-.068a5.413,5.413,0,0,0,2.413.41,3.35,3.35,0,0,0,2.6-.683,5.252,5.252,0,0,0,2.3-3.552l.273-1.32.615.319c2.823,1.48,6.079-.25,6.671-3.574l.159-.842.842.364a4.193,4.193,0,0,0,5.9-3.187l.114-.979,1.753.023a4.389,4.389,0,0,0,2.686-.546,4.606,4.606,0,0,0,2.345-4.143c0-.842.023-.865.592-.66a7.864,7.864,0,0,0,4.485-.228,6.907,6.907,0,0,0,4.394-7.4c-.159-.933-.228-1.024-.8-1.024h-.637l.114,1.571a4.835,4.835,0,0,1-1.207,4.075,5.478,5.478,0,0,1-4.439,1.935c-1.5-.023-3.278-.592-3.142-1a21.558,21.558,0,0,1,2.686-1.776c1.981-1.161,2.618-1.662,2.618-2,0-.3-.524-.911-1.389-1.639-1.32-1.093-1.48-1.161-2.618-1.161l-1.229.023.911.729c.5.41,1.207,1,1.571,1.32l.66.569L275.6-276.2c-1.935,1.184-6.124,3.825-9.311,5.9-16.574,10.677-24.952,14.8-34.65,16.961a52.82,52.82,0,0,1-17.416.933c-3.847-.524-4.417-.706-6.989-2.322a71.965,71.965,0,0,0-15.5-7.24c-1.116-.364-2.072-.66-2.117-.683a11.571,11.571,0,0,1,.455-1.434l.478-1.389,1.275.911c.706.5,1.525,1.138,1.844,1.411a2.967,2.967,0,0,0,.8.524c.137.023,1.229.615,2.459,1.3a48.389,48.389,0,0,0,32.192,4.826c8.31-1.685,14.115-4.462,30.917-14.8,10.564-6.511,12.476-7.718,12.567-7.991.046-.159-.319-.592-.82-.979a2.212,2.212,0,0,0-2-.66l-1.07.068,1.093.706,1.093.706-3.187,1.981c-1.753,1.07-3.233,1.958-3.3,1.958a9.8,9.8,0,0,1-.228-1.89c-.2-2.641-.5-3.574-1.138-3.574h-.524l.592,2.96.615,2.982-2.869,1.776c-1.571.956-3.369,2.049-3.984,2.413l-1.116.66.159-.569a19.452,19.452,0,0,0,.911-6.238c.023-3.1-.137-3.984-.729-3.984-.364,0-.387.319-.387,3.46a20.426,20.426,0,0,1-.546,5.783l-.569,2.3-2.277,1.389c-1.275.751-2.322,1.343-2.345,1.32a6.24,6.24,0,0,1,.5-1.457,22.254,22.254,0,0,0,1.252-7.718v-2.368l.683-.228c1.229-.433,1.093-1.73-.159-1.411-.455.091-.524.023-.524-.478,0-.478-.114-.592-.592-.592-.524,0-.569.068-.455.569.137.569.137.569-1.5.569-2.618,0-5.692-.455-5.555-.82.068-.2-.046-.319-.3-.319s-.478.091-.524.228-.41.137-.979,0a20.41,20.41,0,0,0-3.187-.2H236.35l1.024.341A52.335,52.335,0,0,0,246-278.749l3.028.41-2.117,1.207c-1.184.66-4.189,2.527-6.693,4.121-11.178,7.126-15.572,8.97-22.425,9.471-3.87.273-9.494-.615-14.912-2.345-2.664-.842-10.564-3.87-10.882-4.166a3.833,3.833,0,0,1-.046-1.685l.159-1.525,1.07.615a15.171,15.171,0,0,1,1.571,1.07,2.114,2.114,0,0,0,.911.524,34.2,34.2,0,0,1,3.3,1.32c9.107,4.007,18.441,4.394,25.316,1.07a9.113,9.113,0,0,0,4.69-4.235c1.275-2.6.842-5.213-1.093-6.625a6.167,6.167,0,0,0-4.667-1.434c-1.161.023-1.912.068-1.662.137,1.73.364,1.685.3.774.774a5.686,5.686,0,0,0-2.937,4.69,5.271,5.271,0,0,0,4.3,4.895c1.138.091,1.093-.387-.068-.82a5.4,5.4,0,0,1-2.891-3.073c-.729-2.459,1.571-5.031,4.553-5.031.8,0,2.322,1.229,2.891,2.3,1.161,2.254-.82,5.578-4.326,7.262A28.911,28.911,0,0,1,218.023-268c-.546,0-2.072-1.685-2.686-2.982a7.591,7.591,0,0,1-.637-5.236,6.829,6.829,0,0,1,2.3-3.825l1.024-.933h-1a1.62,1.62,0,0,0-1.685.842c-2.823,3.6-2.686,8.378.319,11.383l.956.956-1.252.159a26.438,26.438,0,0,1-3.073.046c-1.753-.114-1.867-.137-2.482-.888a8.174,8.174,0,0,1,.319-11.383l1.138-1.116h-.933a1.753,1.753,0,0,0-1.616.8,10.06,10.06,0,0,0-2.3,5.919,9.477,9.477,0,0,0,1.594,4.94c1.07,1.594,1.07,1.594-2.55.66-3.643-.956-4.166-1.207-4.781-2.368-.455-.82-.524-1.3-.524-3.233,0-2.14.046-2.345.751-3.665,1.161-2.14,1.685-2.527,3.688-2.777,1.548-.2,1.343-.228-2.254-.25a20.888,20.888,0,0,0-6.261.524c-3.87.933-3.779.911-3.779.137,0-.615-.068-.683-.774-.683h-.751l-.137,4.485c-.25,10.29-2.869,16.642-9.607,23.426-7.809,7.854-18.782,11.952-33.512,12.521a97.1,97.1,0,0,1-13.318-.592c-4.007-.569-11.2-4.872-15.64-9.357-6.716-6.762-11.178-17.963-11.178-28.094v-2.39h-1.594v1.07c0,1.3.41,6.124.569,6.807.091.433-.046.5-1.776.751-2.846.387-2.732.455-1.981-1.07a10.225,10.225,0,0,0,1-5.373c-.25-1.844-.433-2.186-1.229-2.186s-.82.091-.3,1.275a8.049,8.049,0,0,1,.387,2.709,5.594,5.594,0,0,1-.729,3.369,4.641,4.641,0,0,1-1.252,1.753,29.385,29.385,0,0,1-4.781.683c-.387,0-.341-.091.25-.8a10.055,10.055,0,0,0,2.55-6.739c0-1.981-.114-2.254-.956-2.254-.637,0-.66.023-.478.729a15.314,15.314,0,0,1,.159,2.686,6.168,6.168,0,0,1-.637,3.278,10.571,10.571,0,0,1-1.616,2.322l-.956,1H87.048l.933-1a9.611,9.611,0,0,0,2.413-7.672c-.182-1.116-.25-1.229-.842-1.3-.637-.068-.66-.068-.455.683a13.652,13.652,0,0,1,.159,2.5,5.678,5.678,0,0,1-.729,3.21,10.186,10.186,0,0,1-1.844,2.5c-1.116,1.047-1.116,1.047-2.436.933a47.213,47.213,0,0,1-7.422-1.32l-.751-.319.979-.159a7.24,7.24,0,0,0,4.007-2.573,3.867,3.867,0,0,0,.774-2.618c.114-2.163-.182-2.891-1.093-2.891h-.706l.364.683a5.068,5.068,0,0,1-.091,3.825,4.834,4.834,0,0,1-4.713,2.664c-1.821,0-2.094-.159-2.96-1.616a4.594,4.594,0,0,1-.25-4.485L72.956-281l-.729.068c-1,.091-1.389.979-1.389,3.142a5.29,5.29,0,0,0,2.049,4.53c1.707,1.571,4.3,2.5,8.492,3.028,1.571.182,2.094.341,2.094.592,0,.228.137.273.524.159a55.552,55.552,0,0,1,6.079-.228,50.3,50.3,0,0,0,13.614-1.48,14.225,14.225,0,0,1,2.755-.546,37,37,0,0,1,1.093,4.781c-.023.023-2.254.228-4.94.455-6.079.524-17.917.592-21.059.137a59.033,59.033,0,0,1-11.793-2.982c-.524-.228-1.776-.774-2.777-1.184-1-.433-3.3-1.616-5.122-2.664-5.828-3.369-8.036-4.553-9.676-5.191l-1.594-.637,1.138-.319c.637-.159,2-.592,3.073-.911l1.935-.615-1.639-.068a11.526,11.526,0,0,0-3.438.41c-2.208.546-2.072.546-1.935,0,.114-.387,0-.455-.592-.455s-.706.091-.706.546a.665.665,0,0,1-.455.706.667.667,0,0,0-.159,1.184c.2.114.387,1.207.569,3.256.159,1.685.455,3.961.683,5.054a5.869,5.869,0,0,1,.228,2c-.114,0-1.116-.387-2.254-.842-1.594-.66-2.117-.979-2.3-1.434a27.949,27.949,0,0,1-1.161-7.672c-.046-2.413-.091-2.8-.41-2.8-.911,0-.706,5.077.341,8.7a5.342,5.342,0,0,1,.387,1.776c-.068,0-1.07-.478-2.254-1.047l-2.14-1.024-.706-1.525a8.236,8.236,0,0,1-.546-5.714l.341-1.161h-.637c-.524,0-.66.114-.774.706a11.128,11.128,0,0,0,.41,5.327,6.633,6.633,0,0,1,.433,1.48c-.091,0-5.236-2.823-6.966-3.8-.114-.068.751-.592,1.935-1.184,1.161-.592,2.573-1.366,3.119-1.73l1.024-.683-1.207-.068a3.361,3.361,0,0,0-2.459.683c-1.616.979-3.073,2.208-2.891,2.482.068.114-.25.046-.683-.182-.8-.364-1.229-.319-.956.137a49.066,49.066,0,0,0,6.443,4.371c12.271,7.308,29.642,12.476,45.942,13.66a25.6,25.6,0,0,1,3.916.478.238.238,0,0,0,.41-.068c.114-.182.683-.228,1.8-.137a130.847,130.847,0,0,0,14.366-.637c2.891-.341,3.187-.341,3.438-.023.364.5.842.455.706-.068-.091-.364.137-.455,1.8-.729l1.89-.341.228.524c.273.615.25.637-1.229.865-.5.068-2.6.546-4.667,1.024a96.664,96.664,0,0,1-47.286-1.366,79.166,79.166,0,0,1-19.442-8.1A66.037,66.037,0,0,1,26.467-276.7l-1.343-1.229,1.844-1.3a18.294,18.294,0,0,0,1.958-1.5c.091-.137-1.047-.228-3.1-.228l-3.256-.023Zm4.28.569c-1.594,1.662-1.594,1.707-.182,3.529l1.252,1.594-.751.546a3.732,3.732,0,0,1-2.55,1.093,2.68,2.68,0,0,1-2.664-1.753c-.865-1.935-.046-4.007,2.026-5.145,1-.524,3.415-1.138,3.688-.911C26.6-280.548,26.217-280.093,25.716-279.546Zm174.025.888c-.683,1.343-.729,1.594-.729,3.711a6.769,6.769,0,0,0,.5,3.347,4.446,4.446,0,0,1,.41,1.093c-.068,0-1.184-.478-2.527-1.047-2.755-1.229-2.937-1.434-2.755-3.62a5.755,5.755,0,0,1,1.48-3.6,13.216,13.216,0,0,1,4.075-1.275C200.379-280.07,200.2-279.5,199.742-278.658Zm-5.669,1.138a5.873,5.873,0,0,0-.364,2.732,7.256,7.256,0,0,1,0,1.548c-.023,0-.364-.159-.729-.341l-.683-.364v-4.508l.865-.091c.455-.046.956-.091,1.116-.114S194.369-278.271,194.073-277.52Zm-143.245-.137c.5.182,1.776.751,2.846,1.275l1.958.911v2.755a14.251,14.251,0,0,0,1,6.238c.228.546.319.979.2.979-.3,0-6.238-2.094-6.443-2.277a46.257,46.257,0,0,1-.979-7.7C49.234-278.34,49.234-278.317,50.827-277.657Zm199.888,2.277a29.315,29.315,0,0,1-.956,5.487,27.373,27.373,0,0,0-.729,3.415c.046.25-.888.888-3.005,2.026-1.685.933-3.142,1.685-3.233,1.685s.046-.592.3-1.32a21.124,21.124,0,0,0,.751-7.741l-.228-1.89,1.616-1c1.48-.933,5.35-3.051,5.555-3.073A16.3,16.3,0,0,1,250.715-275.38ZM59.547-273.149l2.823,1.662-.046,1.8a9.113,9.113,0,0,0,1.252,5.122,7.737,7.737,0,0,1,.546.979c0,.091-5.988-1.411-6.056-1.525-.023-.023-.364-1.116-.751-2.436a16.848,16.848,0,0,1-.865-4.849,7.468,7.468,0,0,1,.068-2.436A29.236,29.236,0,0,1,59.547-273.149Zm215.46.25c1.184,2.459-.706,4.758-3.893,4.781-1.343,0-1.5-.046-2-.683a3.1,3.1,0,0,1-.546-.911,50.828,50.828,0,0,1,5.942-3.961C274.574-273.7,274.8-273.331,275.007-272.9Zm-245.876.637c1.116.956,2.618,2.14,3.552,2.823.228.159-.729,1.184-1.412,1.525a2.982,2.982,0,0,1-3.984-1,2.474,2.474,0,0,1-.433-2.049c.091-1.252.478-2.5.751-2.5A11.645,11.645,0,0,1,29.131-272.261Zm213.935.433a38.308,38.308,0,0,1-.956,7.171l-.5,2.573-2.5,1.047c-1.912.82-6.807,2.6-7.1,2.6-.023,0,.341-1,.82-2.231a32.384,32.384,0,0,0,1.412-4.826,21.929,21.929,0,0,1,.637-2.686c.068-.023,1.867-1.161,3.984-2.527,2.14-1.389,3.939-2.5,4.052-2.5C243-273.24,243.066-272.6,243.066-271.829Zm-177.44,2c2.14.979,2.482,1.207,2.436,1.639-.023.3-.114,1.184-.2,2a5.418,5.418,0,0,0,.228,2.5,5.592,5.592,0,0,1,.3,1.07,12.69,12.69,0,0,1-1.548-.3c-1.434-.319-1.5-.387-2.231-1.571a11.351,11.351,0,0,1-1.616-5.259,5.047,5.047,0,0,1,.068-1.229C63.1-270.963,64.237-270.463,65.625-269.825Zm129.654,3.3c-.046,1-.615,2.846-.842,2.846a8.215,8.215,0,0,1-.956-.524c-3.005-1.89-2.755-1.662-2.55-2.482.114-.41.319-1.184.455-1.707l.228-.956,1.867.865,1.867.842Zm73.057-.046a2.033,2.033,0,0,1-.751,1.867c-1.389,1.389-3.028,1.343-4.576-.137-.774-.729-.865-.933-.592-1.116.182-.114,1.366-.865,2.618-1.685l2.254-1.457.524.706A2.711,2.711,0,0,1,268.336-266.57Zm-234.128-1.89c.114.114,1.366.865,2.777,1.662l2.55,1.457-.751,1.116c-.979,1.411-2.117,2.208-2.891,2.026a5,5,0,0,1-2.755-1.639,5.294,5.294,0,0,1,.091-3.779C33.661-268.71,33.821-268.846,34.208-268.459Zm40.57,1.935c1.207.319,3.62.8,5.35,1.07l3.119.524V-264a8.573,8.573,0,0,0,.341,2.026,3.707,3.707,0,0,1,.228,1.207,19.056,19.056,0,0,1-3.119-.159c-1.662-.137-3.187-.25-3.392-.25-.546,0-1.571-2.072-1.753-3.574-.091-.706-.25-1.275-.387-1.252-.387.068-.387,2.3-.023,3.415a3.519,3.519,0,0,1,.3,1.093c-.046.046-4.03-.524-5.031-.729-.933-.2-1.8-2.14-1.821-4.166a6.13,6.13,0,0,1,.159-1.753c.091-.182.729-.046,1.981.387C71.727-267.389,73.548-266.843,74.777-266.524Zm158.954.3a46.187,46.187,0,0,1-2.39,6.557l-.751,1.639-2,.364a56.63,56.63,0,0,1-5.783.706s.5-.569,1.138-1.229c1.412-1.5,2.5-3.643,2.5-4.918v-.956l2.231-.956c1.207-.524,2.937-1.343,3.8-1.844.888-.5,1.616-.911,1.639-.911S233.959-267.07,233.732-266.228Zm-34.1.433c2.095.82,2.208.888,2.072,1.434a8.854,8.854,0,0,1-1.389,2.914l-.433.546-2.368-1.184c-1.3-.66-2.39-1.207-2.413-1.229a2.925,2.925,0,0,1,.387-.933,4.772,4.772,0,0,0,.455-1.981v-1.093l.751.319C197.078-266.82,198.421-266.274,199.628-265.8ZM108.4-264.657c.341.979.66,1.89.706,2.049.068.159-.455.341-1.48.524-2.345.387-2.527.319-3.119-1.138-.911-2.3-.911-2.3,1.047-2.755.933-.2,1.821-.387,1.981-.41C107.675-266.41,108.062-265.613,108.4-264.657Zm-5.009.114a15.99,15.99,0,0,0,.478,1.867c.182.478.273.956.182,1.024a13.435,13.435,0,0,1-2.322.387c-1.912.2-2.254.182-2.641-.114-.865-.751-1.594-3.1-1-3.324.228-.091,3.8-.66,4.895-.774C103.121-265.477,103.3-265.067,103.395-264.543Zm158.112,1.32a3.587,3.587,0,0,1-5.191,3.21,3.655,3.655,0,0,1-1.184-.911c-.2-.387.091-.637,2.8-2.277C261.324-265.272,261.506-265.272,261.506-263.223Zm-218.351-.455c1.389.615,2.6,1.138,2.686,1.138a1.041,1.041,0,0,1,.478.2c.455.273-.182,1.434-1.252,2.231a2.686,2.686,0,0,1-2.049.637,2.178,2.178,0,0,1-2.049-.842,2.627,2.627,0,0,1-.933-2.186c-.091-1.138.182-2.322.5-2.322C40.605-264.817,41.766-264.316,43.155-263.678Zm45.715-.911H90.3v.956a7.484,7.484,0,0,0,.341,1.89,7.845,7.845,0,0,1,.341,1.07c0,.228-3.87.228-5.1.023-.774-.114-.933-.25-1.412-1.3A6.126,6.126,0,0,1,83.929-264v-.888l1.753.159C86.639-264.657,88.073-264.589,88.87-264.589Zm8.492.865a5.02,5.02,0,0,0,.41,1.912l.433.82-.82.137a28.991,28.991,0,0,1-3.028.137H92.171l-.524-.82a5.682,5.682,0,0,1-.615-1.935l-.091-1.093,3.028-.091c1.685-.023,3.119-.091,3.233-.114C97.293-264.794,97.362-264.316,97.362-263.724Zm107.32-.319c1,.3,2.117.615,2.482.683.546.137.615.25.615,1.07,0,1.138-.433,2.937-.729,2.937-.114,0-.137.091-.068.228a.739.739,0,0,0,.569.228c.5,0,.865-.956,1.07-2.8.137-1.275.159-1.32.729-1.207a26.966,26.966,0,0,0,4.963.592,4.014,4.014,0,0,1,1.5.159c.2.387-.455,2.755-1.047,3.779-.546.911-.729,1.07-1.343,1.07-1.844,0-9.243-1.89-12.112-3.073l-.842-.364.774-.911a6.184,6.184,0,0,0,1.07-1.912,3.6,3.6,0,0,1,.387-1.024C202.769-264.589,203.657-264.338,204.682-264.042Zm20.854.524c0,.114-.159.728-.319,1.389a8.508,8.508,0,0,1-2.277,3.893,2.777,2.777,0,0,0-.82,1.116c0,.3-.546.319-3.529.228-1.958-.068-3.6-.182-3.665-.228a4.914,4.914,0,0,1,.683-1.434,9.644,9.644,0,0,0,1.047-2.5l.25-1.184,1.981-.137a28.126,28.126,0,0,0,4.03-.683C225.285-263.7,225.536-263.747,225.536-263.519ZM51.328-260.491a12,12,0,0,1,3.005,1.252,9.67,9.67,0,0,1-2.39,2.96,2.655,2.655,0,0,1-3.6-.319c-.637-.615-.729-.865-.8-2.3-.114-1.8.068-2.8.478-2.686C48.186-261.538,49.666-261.06,51.328-260.491Zm140.741.387c15.071,5.623,26.887,14.411,35.219,26.158a72.186,72.186,0,0,1,13.022,36.4c.455,6.17.455,6.511.046,6.4-.2-.068-1.685-.341-3.324-.592a119.07,119.07,0,0,1-18.9-4.8c-2.368-.774-4.667-1.5-5.077-1.616-1.821-.524-9.858-3.46-12.385-4.53-11.77-4.94-19.238-11.11-25.088-20.786a74.784,74.784,0,0,1-5.168-10.268c-.524-1.389-1.662-3.87-2.527-5.555s-1.525-3.073-1.5-3.073c.228-.137,3.3-1.275,3.483-1.275a8.773,8.773,0,0,1,.82,2.5,50.625,50.625,0,0,0,13.637,23.449c6.4,6.42,13.022,10.4,22.448,13.546,4.53,1.525,29.437,8.583,29.687,8.424.546-.341-.046-6.147-1.161-11.315a73.349,73.349,0,0,0-25.407-40.8,22.489,22.489,0,0,1-2.8-2.436c0-.114-.159-.2-.341-.2-.273,0-1.89-.979-5.919-3.62-.5-.319-1.07-.637-1.252-.729-.182-.068-1.525-.683-2.96-1.389a69.791,69.791,0,0,0-8.014-3.256l-.615-.159.387-.774C188.814-261.333,188.768-261.333,192.069-260.1Zm61.924,1.184c0,2.573-1.639,4.348-3.984,4.348a3.52,3.52,0,0,1-3.028-1.662l-.478-.706,3.574-1.844c2.345-1.229,3.643-1.776,3.734-1.616A4.413,4.413,0,0,1,253.994-258.92Zm-191.92,1.912c0,1.116-1.685,2.96-2.937,3.233-2.277.5-4.439-2.186-3.688-4.508l.25-.774,3.187.82C61.5-257.554,62.074-257.349,62.074-257.008ZM111.2-258.1a11.507,11.507,0,0,1,.5,1.138c0,.068-.341.114-.774.114a18.955,18.955,0,0,0-2.914.546c-6.147,1.548-13.091,5.692-18.964,11.292a7.841,7.841,0,0,1-2.094,1.662c-.182-.068-.3.068-.3.319a6.978,6.978,0,0,1-1.389,2c-8.9,10.245-15.117,25.544-17.393,42.892-.433,3.256-.433,4.417-.046,4.3a14.731,14.731,0,0,0,1-3.506c.387-1.867.729-3.438.729-3.483a4.235,4.235,0,0,1,.615,1.07,12.079,12.079,0,0,0,1.707,2.413l1.093,1.207-1.912.637c-2.277.729-2.869,1.093-2.459,1.5,1.047,1.047,15.276-3.483,25.225-8.036,1.639-.751,3.165-1.457,3.392-1.594a101,101,0,0,0,11.064-6.511c8.15-5.578,14.32-12.271,17.78-19.283a33.478,33.478,0,0,0,3.278-11.064l.137-.842,1.116.364c.637.2,1.138.433,1.138.546,0,.091.159.182.341.182.364,0,.478.364.137.5a55.533,55.533,0,0,0-2.641,6.784A70.089,70.089,0,0,1,122.45-219.4c-8.332,12.066-21.15,20.171-40.774,25.817-5.3,1.548-17.689,4.53-17.872,4.326a34.628,34.628,0,0,1,.66-3.961c.433-2.14,1.389-7.058,2.163-10.951,3.415-17.553,6.557-26.568,12.225-35.106a42.847,42.847,0,0,1,18.623-16.1,14.333,14.333,0,0,1,4.963-1.594,37.928,37.928,0,0,0,7.217-1.8c.433-.182.842-.341.933-.364A3.527,3.527,0,0,1,111.2-258.1Zm78.043.091c.979.364,2.072.774,2.413.911l.615.228-.66,1.616c-1,2.459-.865,2.413-3.8.979l-2.55-1.252,1.07-1.571c.592-.842,1.07-1.548,1.093-1.571C187.425-258.67,188.245-258.374,189.246-258.009ZM67.082-256.53c1.184.2,2.482.433,2.891.478l.729.137-.546,1.525c-.729,2.049-1.548,2.777-3.073,2.777-1.844,0-3.1-1.411-3.187-3.643-.091-1.707-.046-1.89.524-1.753C64.692-256.939,65.9-256.712,67.082-256.53Zm129.312,1.571c2.6,1.3,2.846,1.457,2.777,1.981a8.459,8.459,0,0,1-1.685,3.347l-.524.478-2.869-1.685-2.869-1.707,1-1.912a9.091,9.091,0,0,1,1.161-1.935C193.481-256.393,194.824-255.756,196.395-254.959Zm49.175-.842a3.416,3.416,0,0,1-1.093,3.87,3.227,3.227,0,0,1-2.96,0A3.662,3.662,0,0,1,239.878-254c0-.137.637-.455,1.434-.751.774-.273,1.935-.751,2.55-1.047C245.32-256.507,245.32-256.507,245.57-255.8ZM113.457-254.39c1.024,1.5,1.138,1.776.8,1.912a19.648,19.648,0,0,1-4.576,1.161,2.581,2.581,0,0,0-.888-.5c-.751-.319-2.094-1.73-2.094-2.231,0-.273.3-.387,3.187-1.207a10.518,10.518,0,0,0,1.935-.706.619.619,0,0,1,.341-.2A15.982,15.982,0,0,1,113.457-254.39ZM76.69-255.414l3.369.273-.66,1.366c-.956,2.026-1.776,2.686-3.392,2.8-1.252.091-1.389.046-2.186-.637A5.635,5.635,0,0,1,72-254.868C71.818-255.869,71.476-255.824,76.69-255.414Zm15.823.8a42.04,42.04,0,0,0-5.965,4.007l-.706.569-1.116-.524a5.024,5.024,0,0,1-3.073-4.121v-.569l3.939-.023c2.14-.023,4.644-.114,5.509-.2.888-.091,2-.159,2.5-.182C94.493-255.71,94.47-255.687,92.512-254.617Zm99.648,4.3a62.118,62.118,0,0,1,13.2,9.63c4.94,4.8,6.716,7.6,10.86,17.348a70.16,70.16,0,0,0,4.394,9.175,10.272,10.272,0,0,1,.751,1.411A25.717,25.717,0,0,1,218.8-213.8c-1.366-.615-4.417-1.753-6.807-2.527-13.273-4.3-16.87-5.783-20.945-8.674a44.818,44.818,0,0,1-13.432-16.255c-1.343-2.755-2.39-5.054-2.39-5.213a18.739,18.739,0,0,1,2.823-1.958,5,5,0,0,1,.364,1.3,31.973,31.973,0,0,0,5.054,10.632c4.326,5.6,10.063,9.994,14.639,11.178,4.6,1.184,8.765-1.207,8.765-5.031,0-2.914-1.935-6.215-6.01-10.222-6.01-5.919-11.611-9.744-16.619-11.292l-1.685-.524.933-1.07.933-1.093,2.413,1.275C188.153-252.568,190.544-251.225,192.16-250.314Zm-84.053-1.093.842.546-2.732,1.32a24.159,24.159,0,0,1-3.028,1.343,6.125,6.125,0,0,1-1.207-.433,2.72,2.72,0,0,1-1.685-2.254l-.159-.774,1.73-.8c.956-.455,2.254-.979,2.869-1.207l1.138-.387.683,1.047A6.9,6.9,0,0,0,108.107-251.407Zm130.633-1.229a4.043,4.043,0,0,1-5.919,3.529c-.8-.41-2.277-2.14-2.026-2.368a24.185,24.185,0,0,1,2.368-.683c1.252-.3,2.891-.774,3.643-1C238.763-253.8,238.74-253.8,238.74-252.637Zm-36.472.888c1.093.683,2.413,1.548,2.937,1.935l.933.683-.455,1.548c-.524,1.821-1.32,3.711-1.525,3.711a24.518,24.518,0,0,1-2.186-1.639c-1.116-.888-2.6-1.981-3.256-2.413l-1.207-.8.8-.82a7.062,7.062,0,0,0,1.73-3.1c0-.182.046-.341.114-.341A22.523,22.523,0,0,1,202.269-251.749Zm-86.011,1.138c0,.137-.592.5-1.32.8-7.649,3.233-17.644,11.7-22.789,19.329a23.97,23.97,0,0,0-3.119,6.648c-.433,3.165,2.049,4.143,7.058,2.846,10.2-2.641,18.122-9.972,24-22.152a19,19,0,0,1,1.343-2.55,6.251,6.251,0,0,1,1,.615l.888.637-.137,1.594c-.683,7.536-5.737,14.343-14.5,19.579a6.232,6.232,0,0,1-2.5,1.116c-.25-.091-.387-.023-.387.182,0,.41-3.529,2.117-11.064,5.282a91.084,91.084,0,0,0-13.432,6.625c-1.07.683-1.958,1.252-2,1.252a11.853,11.853,0,0,1,.66-1.821c.433-1,1.412-3.734,2.163-6.079,2.072-6.306,3.1-9.015,4.462-11.679,5.282-10.4,14.115-17.963,26.272-22.516l2.39-.911.524.478A1.7,1.7,0,0,1,116.258-250.61Zm66.819-.3,1.116.342-1.07.615a5.991,5.991,0,0,0-2.686,3.415c-.319.956-.433,1.093-.569.729-.091-.25-.342-.956-.592-1.548a5.01,5.01,0,0,1-.387-1.48c0-.41,2.755-2.823,2.937-2.573A5.181,5.181,0,0,0,183.077-250.906Zm31.827-.023c.729.114,2.345.273,3.6.364l2.254.159.228.888a3.421,3.421,0,0,1-.8,3.347l-.751.8-2.231-1.935c-1.252-1.07-2.755-2.345-3.392-2.823-1.662-1.3-1.685-1.32-.911-1.161C213.287-251.2,214.175-251.043,214.9-250.929Zm14.73.569a3.549,3.549,0,0,1-4.553,3.552,3.983,3.983,0,0,1-2.641-2.39l-.546-1.161,1.89-.182c1.525-.159,2.96-.364,5.692-.82C229.565-251.362,229.634-250.929,229.634-250.36Zm-129.7.319c.387,1.116,1.48,2.3,2.117,2.3.478,0,.387.364-.182.615a23.706,23.706,0,0,0-2.436,1.685c-1.024.8-2.072,1.594-2.277,1.73-.319.25-.546.182-1.343-.41-1.116-.82-2.413-2.6-2.231-3.051a44.392,44.392,0,0,1,5.805-3.984A3.5,3.5,0,0,1,99.934-250.041Zm18.691,1.8,1.707,1.662-.956,2.026a13.692,13.692,0,0,1-1.093,2.049c-.091,0-.228-.273-.3-.592a7.674,7.674,0,0,0-2.982-3.1,9.06,9.06,0,0,0-2.049-.729l-1.116-.25,2.254-1.434a11.3,11.3,0,0,1,2.55-1.343A14.662,14.662,0,0,1,118.625-248.243Zm69.232-.82c1.48.729,1.821,1.093,1.093,1.093a7.154,7.154,0,0,0-3.506,1.981,7.339,7.339,0,0,0-2.527,5.509,2.554,2.554,0,0,1-.091.933,22.6,22.6,0,0,1-1.138-2.072c-1-2-1.024-2.117-.8-3.187a5.883,5.883,0,0,1,3.779-4.622C185.991-249.9,186.2-249.882,187.857-249.062Zm-103.564-.273.615.25-1.457,1.525c-.8.842-1.89,2.026-2.413,2.664-.933,1.116-.933,1.138-1.412.706a3.185,3.185,0,0,1-.82-2.641,4.112,4.112,0,0,1,2.049-2.413A5.9,5.9,0,0,1,84.294-249.335Zm124.418,2.117c3.073,2.459,3.392,2.777,3.392,3.483-.023,1.616-1.548,6.17-2.026,5.965a24.423,24.423,0,0,1-1.89-2,29.573,29.573,0,0,0-2.664-2.686l-.933-.751.888-1.753a21.692,21.692,0,0,0,1.138-2.618,2.09,2.09,0,0,1,.433-.842A11.574,11.574,0,0,1,208.711-247.218Zm-15.618,1.48c2.14,1.616,2.846,2.208,2.846,2.345a3.466,3.466,0,0,1-1.457.25,8.6,8.6,0,0,0-5.145,2.368,8,8,0,0,0-2.618,4.348l-.478,1.662-1.229-1.594-1.207-1.616.046-1.753a7.365,7.365,0,0,1,5.646-7.217,1.827,1.827,0,0,0,.888-.364C190.544-247.56,191.068-247.264,193.094-245.738Zm29.551-1.229a.348.348,0,0,1-.228.455c-.455.182-.569.068-.387-.41C222.212-247.378,222.485-247.4,222.644-246.968Zm-127.6,3.142,1.024,1.07-1.707,1.662a47.8,47.8,0,0,0-5.988,7.126c-1.434,2.163-1.252,2.117-3.233.751-1.024-.683-2.254-2.482-2.049-3.005.068-.159.956-1.343,1.981-2.618l1.867-2.3.66.888a4.609,4.609,0,0,0,3.1,2.072c1.07,0,.933-.341-.319-.82-1.116-.433-2.8-1.912-2.8-2.459a17.234,17.234,0,0,1,2.664-2.846l2.641-2.55.569.979A13.225,13.225,0,0,0,95.039-243.826Zm79.864-1.707c.068.364.228.911.319,1.252.182.592.091.706-1.662,1.981l-1.867,1.343-.387-1.116c-.683-2-.706-1.935,1.3-3.051a18.711,18.711,0,0,1,1.981-1C174.676-246.148,174.812-245.875,174.9-245.533Zm-60.74.2a4.675,4.675,0,0,1,1.821,1.525,10.056,10.056,0,0,1,1.412,2.96,37.729,37.729,0,0,1-3.073,5.145c-.273.3-.341.273-.478-.114-1.229-3.711-3.893-6.033-7.354-6.375l-1.389-.159,2.413-1.776,2.413-1.8h1.525A5.179,5.179,0,0,1,114.163-245.329Zm109.893.114a3.95,3.95,0,0,1,2.618,2.026,3.786,3.786,0,0,1-.569,4.326c-.364.3-.5.2-1.571-1.024-.637-.751-1.912-2.14-2.823-3.1l-1.662-1.753.751-.228C222.508-245.511,222.895-245.533,224.056-245.215ZM78.534-243.166a2.414,2.414,0,0,1,.842.319c0,.046-.683,1.07-1.5,2.322-.82,1.229-1.685,2.6-1.912,3.051-.433.82-1.116,1.207-1.73.956-.5-.182-1.229-1.958-1.229-3.005C73-242.187,75.688-243.963,78.534-243.166Zm47.969.546c1.161.569,1.594.933,1.594,1.252a6.4,6.4,0,0,1-.706,2.732,8.693,8.693,0,0,1-2.755-1.5c-.3-.341-.341-.706-.25-1.867.068-.774.228-1.411.341-1.411A12.919,12.919,0,0,1,126.5-242.619Zm91.52,4.235a4.9,4.9,0,0,1-.25,2.277,17.368,17.368,0,0,1-2.072,5.145l-.706,1.184-1.252-2.208c-.683-1.207-1.685-2.846-2.231-3.643s-1-1.48-1-1.5a10.992,10.992,0,0,1,.774-1.252A10.644,10.644,0,0,0,212.9-242.6l.137-.888,2.39,2.368A34.732,34.732,0,0,1,218.023-238.385Zm-41.275-1.639.751,1.662-.478.66a4.583,4.583,0,0,1-2.664,1.594c-.865.182-.8.25-2-2.891l-.524-1.389L173.7-241.5c1.776-1.07,1.867-1.116,2.072-.66C175.882-241.914,176.315-240.957,176.748-240.024Zm23.973.8a5.045,5.045,0,0,1-.888-.046c-3.8-.364-7.786,3.711-8.037,8.241l-.068,1.116-1.707-1.366c-.933-.774-1.981-1.685-2.322-2.049-.569-.592-.592-.706-.387-1.73a9.825,9.825,0,0,1,2.641-4.735,8.323,8.323,0,0,1,5.191-2.186,5.049,5.049,0,0,0,1.844-.341A23.216,23.216,0,0,1,200.72-239.227Zm-34.787-.615C177-219.056,176-193.558,163.179-168.857a120.722,120.722,0,0,1-7.194,12.112,18.291,18.291,0,0,1-2.117,2.368c-1.024.888-2.277,1.685-2.436,1.525-.046-.046-1.093-2.163-2.322-4.735-2.982-6.17-5.76-11.338-10.063-18.668-7.4-12.658-9.767-18.3-11.087-26.3a71.353,71.353,0,0,1,0-15.595c.751-5.487,2.231-12.021,3.256-14.434.319-.774,1.093-2.732,1.685-4.348l1.093-2.96,1.207.091a7.747,7.747,0,0,1,1.3.137,35.544,35.544,0,0,1-2.527,5.805c-.114,0-.159.091-.091.2a9.891,9.891,0,0,1-.637,2.55c-.41,1.3-.888,2.937-1.047,3.62a4.005,4.005,0,0,1-.615,1.525c-.2.159-.25.3-.068.41a.257.257,0,0,1,.137.3,68.013,68.013,0,0,0-1.275,9.266c-.842,12.5,2.686,24.906,11.338,40.069,3.62,6.352,10.564,16.961,11.064,16.961.364,0,2.823-3.552,4.986-7.24a89.593,89.593,0,0,0,12.248-37.155,100.757,100.757,0,0,0-.342-15.618,65.769,65.769,0,0,0-5.805-19.351c-.774-1.594-1.366-2.914-1.343-2.937a17.745,17.745,0,0,1,2.117-.546A6.721,6.721,0,0,1,165.934-239.842Zm-57.28-.569a9.362,9.362,0,0,1,1.981,1.525c1.5,1.662,2.413,4.052,1.73,4.485-.137.068-.2.433-.114.8.114.569-.091.888-1.867,2.732l-1.981,2.095-.159-1.366a7.8,7.8,0,0,0-7.217-6.875l-1.685-.137,2.14-2.026,2.14-2,1.935.091A6.637,6.637,0,0,1,108.654-240.411Zm52.863.068c.25.524.2.615-.592,1.138a5.541,5.541,0,0,1-3.392.865c-.546-.091-.729-.273-.911-.865l-.25-.751,2.208-.455c1.207-.228,2.3-.455,2.436-.478C161.153-240.889,161.38-240.661,161.517-240.343Zm-35.06,2.14c.569.3.956.637.888.8-.068.137-.3.911-.5,1.685-.455,1.594-.706,1.707-2.277.979-1.89-.888-1.867-.82-1.138-3.073l.637-1.958.706.546A15.622,15.622,0,0,0,126.457-238.2Zm29.8,2.482c3.165,10.746,4.257,18.372,3.483,24.292-.114.865-.273,2.094-.341,2.686a109.642,109.642,0,0,1-2.937,12.43c-.706,2.413-1.275,4.417-1.275,4.485,0,.046-.182.091-.387.091-.3,0-.341.068-.114.182.41.273-1.73,6.9-2.277,7.058-.455.114-.546.41-.137.546.182.068.114.592-.25,1.753-.273.933-.592,1.594-.706,1.48-.2-.228-6.033-13.273-8.014-17.917a78.451,78.451,0,0,1-3.256-9.22c-.091-.455-.068-.729.091-.729a.249.249,0,0,0,.25-.228c0-.137-.137-.228-.319-.228-.41,0-.729-1.457-1.207-5.236-.842-6.875.387-15.709,2.823-20.581.842-1.685,3.688-4.8,3.87-4.28a.652.652,0,0,1-.137.592c-.865,1.024-2.436,6.716-3.119,11.292a72.784,72.784,0,0,0-.114,14.457c1.252,10.472,4.576,16.688,8.515,15.959,2.777-.524,3.939-3.21,4.508-10.5.592-7.7-.683-17.189-3.87-28.686a25.057,25.057,0,0,1-.8-3.278,28.512,28.512,0,0,1,3.961-.433C155.051-239.774,155.12-239.614,156.258-235.721Zm-13.819-3.6H143.9l-1.116,1c-.956.82-1.229.956-1.707.8-.319-.091-1.343-.3-2.277-.433a12.055,12.055,0,0,1-1.776-.341c-.068-.046-.023-.364.046-.706l.159-.615,1.867.159C140.117-239.387,141.619-239.318,142.439-239.318Zm6.944.228a10.26,10.26,0,0,0,.478,2.163,10.738,10.738,0,0,1,.478,2.072,2.6,2.6,0,0,1-.956-.159,5.967,5.967,0,0,0-3.779.364l-.729.387.159-.66a13.378,13.378,0,0,1,2.026-4.052C147.516-239.3,149.587-239.409,149.382-239.091Zm15.049,5.054c.546,1.343,1.184,3.165,1.457,4.052l.478,1.616-.524.433a14.81,14.81,0,0,1-4.667,2.208l-.888.114-.8-3.256-.8-3.278,1.389-.137a6.735,6.735,0,0,0,1.821-.364,5.48,5.48,0,0,0,1.776-1.935c.25-.683-.273-.683-.933,0a4.4,4.4,0,0,1-3.256,1.639h-1.024l-.637-2.231c-.364-1.207-.683-2.322-.729-2.436-.068-.137.546-.228,1.571-.228a3.693,3.693,0,0,0,2.573-.592l.888-.615.66,1.275C163.156-237.064,163.885-235.38,164.431-234.037Zm65.886-3.87a3.8,3.8,0,0,1,1.093,4.963,2.849,2.849,0,0,1-.774.842c-.137.046-.637-.5-1.116-1.229s-1.3-1.89-1.821-2.573c-1.389-1.844-1.366-1.8-.524-2.163A3.309,3.309,0,0,1,230.317-237.907ZM202.883-237a17.534,17.534,0,0,1,1.412,1.958c.546.933,1.3,3.005,1.07,3.005a4.277,4.277,0,0,1-.8-.5c-1.07-.8-3.438-.865-5.054-.114a3.518,3.518,0,0,0-2.39,3.392,2.894,2.894,0,0,0,.273,1.89c.273.41.3.569.091.569a21.92,21.92,0,0,1-4.121-2.094c-.66-.478-.66-.524-.569-2.094.3-4.371,3.142-6.853,7.968-6.944C202.018-237.952,202.086-237.93,202.883-237Zm-61.924.433a4.036,4.036,0,0,1-.569,1.48,9.01,9.01,0,0,0-.683,1.594c0,.637-.615.774-2.3.546a8.028,8.028,0,0,1-1.844-.41,15.818,15.818,0,0,1,1.047-4.052c.068-.182.729-.114,2.163.228A16.216,16.216,0,0,1,140.959-236.564Zm38.338,1.275,1.366,2.095-.933.8a6.49,6.49,0,0,1-2.026,1.161c-1.138.387-1.48.8-.66.8a9.155,9.155,0,0,0,3.506-1.434l.751-.569.933,1.184c.524.637,1.3,1.5,1.73,1.935l.774.751-.478.592a11.872,11.872,0,0,1-2.869,2.823,7.106,7.106,0,0,1-1.207.637c-.341,0-3.347-4.8-4.849-7.786-.82-1.594-1.48-2.937-1.48-2.982a2.111,2.111,0,0,1,.888-.273c1-.159,2.982-1.32,2.982-1.73C177.727-237.679,177.727-237.679,179.3-235.289Zm42.5,1.594c2.39,3.142,2.3,2.891,1.594,5.1a29.91,29.91,0,0,1-3.324,7.012,5.992,5.992,0,0,1-1.024,1.343c-.068-.068-2.482-5.783-3.46-8.2-.341-.8-.319-.842.342-1.821a20.637,20.637,0,0,0,2.55-5.4l.524-1.662.592.729C219.912-236.177,220.914-234.879,221.8-233.7ZM102.074-235.79a6.756,6.756,0,0,1,4.735,5.418c.2.911.433,1.821.478,2.026.159.569-4.143,3.506-6.762,4.6l-.82.341.228-.888a4.077,4.077,0,0,0-.023-2.095,4.932,4.932,0,0,0-4.826-4.143c-.8-.023-1.275-.114-1.184-.25a47.113,47.113,0,0,1,3.073-3.825l1.343-1.525h1.3A10.679,10.679,0,0,1,102.074-235.79Zm-27.82.569c.25.2.114.66-.774,2.482-.615,1.229-1.207,2.573-1.343,2.982-.341.933-.66.82-1.594-.592a2.629,2.629,0,0,1-.683-2.163,3.556,3.556,0,0,1,1.867-2.846A2.929,2.929,0,0,1,74.254-235.22Zm8.879.706a6.892,6.892,0,0,0,3.005,2.846c.3.091.524.182.524.228,0,.068-2.755,5.623-2.846,5.737a8.165,8.165,0,0,1-2.777-1.252,5.59,5.59,0,0,1-1.343-1.594c-.524-.842-.592-1.138-.41-1.639a38.218,38.218,0,0,1,3.3-5.259A2.683,2.683,0,0,1,83.133-234.515Zm42.049.865c.979.319,1,.2-.546,3.483-1.024,2.208-1.229,2.322-2.937,1.73a6.5,6.5,0,0,1-2.482-1.616,9.426,9.426,0,0,1,1-1.594c.546-.774,1.252-1.89,1.594-2.482l.637-1.093.933.66A8.915,8.915,0,0,0,125.182-233.649Zm24.61-.046c.911.341,1.116.5,1.3,1.207.319,1.229,1.138,4.644,1.138,4.826a4.085,4.085,0,0,1-1.3-.569,5.862,5.862,0,0,0-6.693.683c-.82.751-.888.774-.888.3a27.1,27.1,0,0,1,1.252-5.6C145.376-234.037,147.743-234.424,149.792-233.7Zm-11.406,1.662h.82l-.319,1.07a40.693,40.693,0,0,0-1.389,10.29l-.137,4.166-1.616-.091a8.078,8.078,0,0,1-2.96-.706l-1.343-.615.159-1.434c.2-1.821,1.024-5.4,1.252-5.4a12.672,12.672,0,0,1,1.3.341c1.252.387,3.278.455,3.278.114,0-.228-.41-.341-2.049-.569a11.054,11.054,0,0,1-1.776-.364c-.615-.2-.729-.341-.615-.729.091-.273.592-1.935,1.161-3.711l1-3.21,1.184.41A8.951,8.951,0,0,0,138.386-232.033Zm65.863.933c.933.569,1.252.888,1.252,1.3a3.991,3.991,0,0,1-1.89,2.891c-1.093.637-3.119,1.024-3.119.592,0-.137-.2-.25-.455-.25a2.516,2.516,0,0,1-1.184-.66c-2-1.776.068-4.986,3.051-4.735A5.836,5.836,0,0,1,204.249-231.1Zm31.577.25c1.912,1.343,1.867,4.189-.114,6.261l-.706.751-1.07-2.072c-.615-1.138-1.412-2.6-1.8-3.278l-.683-1.207.615-.455a4.606,4.606,0,0,1,1.093-.569A3.775,3.775,0,0,1,235.826-230.849Zm-138.9,1.867a4.733,4.733,0,0,1,1.343,1.616,3.943,3.943,0,0,1,.341,2.755c-.137,1.639-.182,1.707-.865,2-2.208.911-5.418,1.161-6.443.5-.979-.66-1.138-1.343-.66-2.709a19.408,19.408,0,0,1,2.208-4.417C93.673-229.916,95.7-229.779,96.929-228.982Zm24.952,1.548c.546.159.979.364.979.478a47.272,47.272,0,0,1-3.051,4.553c-.273.364-.5.41-1.275.273a9.79,9.79,0,0,1-4.189-2.14l-.66-.683.774-.637c.433-.342,1.525-1.343,2.459-2.254l1.685-1.616,1.161.865A7.893,7.893,0,0,0,121.881-227.434Zm105.408,2.254c1.093,1.958,1.207,2.322.933,2.55a10.085,10.085,0,0,0-1.207,2.322,71.188,71.188,0,0,1-3.165,7.035l-.546.911-1.024-1.594c-.546-.865-1.434-2.436-1.958-3.46l-.956-1.912.865-1.161a27.709,27.709,0,0,0,3.939-7.536l.5-1.571.683,1.07C225.718-227.935,226.583-226.433,227.289-225.18Zm-148.368-3.3c0,.637,2.573,2.982,3.6,3.3a3.724,3.724,0,0,1,.956.364c0,.114-2.322,7.217-2.39,7.308a6.96,6.96,0,0,1-1.5-.592,7.53,7.53,0,0,1-2.846-2.231L75.347-221.9l.842-1.935C78.1-228.277,78.921-229.665,78.921-228.482Zm-7.923.5c.182.182-.046,1.138-.8,3.347-.569,1.707-1.07,3.165-1.138,3.233-.41.387-2.436-1.093-3.028-2.231-1.184-2.322.82-4.918,3.62-4.69A2.974,2.974,0,0,1,71-227.981Zm79.5.82a4.542,4.542,0,0,1,2.618,3.916c.159.979.341,2.163.41,2.6l.137.8-.546-.5a6.531,6.531,0,0,0-5.327-1.229,11.229,11.229,0,0,0-4.394,1.912l-.546.5.091-3.051.068-3.028,1.207-1.116a7.278,7.278,0,0,1,1.935-1.343A6.421,6.421,0,0,1,150.5-227.161Zm36.289.478a35.1,35.1,0,0,0,2.982,2.322c.82.592,1.548,1.093,1.594,1.138a5.44,5.44,0,0,1-.774,1.343,9.13,9.13,0,0,1-3.893,3.119l-1.161.592-1.252-1.3a33.307,33.307,0,0,1-3.825-4.644c0-.091.159-.182.341-.182,1.07,0,4.212-2.482,4.212-3.3C185.012-228.117,185.194-228.026,186.787-226.683Zm-19.306,2.6a28.514,28.514,0,0,1,.637,3.825c-.182,1.024-4.826,2.664-6.443,2.254-.5-.137-.569-.273-.569-1.07a30.269,30.269,0,0,0-.364-3.324,17.9,17.9,0,0,1-.25-2.482,8.439,8.439,0,0,1,1.434-.342,9.411,9.411,0,0,0,4.1-1.844,1.461,1.461,0,0,1,.546-.41A19.6,19.6,0,0,1,167.482-224.088Zm-53.706.159a11.679,11.679,0,0,0,3.984,2.5c.433.068.774.25.774.364a11.6,11.6,0,0,1-1.8,2.072l-1.8,1.821-1.867-.524a13.607,13.607,0,0,1-5.054-2.664l-.615-.592,2.049-1.207c1.116-.66,2.368-1.48,2.777-1.776a4.663,4.663,0,0,1,.865-.592A3.175,3.175,0,0,1,113.776-223.928Zm63.563,5.623c.729.979,1.662,2.163,2.117,2.641.751.842.774.933.569,1.821a3.029,3.029,0,0,1-1.8,2.459,2.543,2.543,0,0,1-1.981.068l-1.161-.273-.273-3.165a90.05,90.05,0,0,0-1.32-9.038c-.068-.341.455.364,1.207,1.548C175.427-221.06,176.611-219.284,177.339-218.305Zm-50.473-3.438c-.2,1.161-.478,3.438-.615,5.077-.387,4.8-.433,4.963-1.275,5.191-1.07.319-2.686-.546-3.665-1.935l-.774-1.093,1.8-2.368c.979-1.3,2.436-3.438,3.256-4.758a18.833,18.833,0,0,1,1.548-2.322A12.879,12.879,0,0,1,126.867-221.743Zm113.148-1.207c1.48.683,2.026,1.639,2.026,3.6,0,1.48-.068,1.707-.706,2.5a6.536,6.536,0,0,1-2.709,1.89c-.137,0-.364-.433-.524-.979-.159-.524-.82-2.231-1.434-3.825-.615-1.571-1.116-2.914-1.116-3.005C235.553-223.45,238.672-223.564,240.015-222.949Zm-42,3.278c.228.091.182.228-.25.524-.546.41-2.846,2.368-5.509,4.667l-1.3,1.116-2-1.662c-1.093-.933-2.254-1.958-2.55-2.3-.524-.546-.524-.592-.114-.592,1.411,0,4.667-2.39,5.418-3.961l.364-.774,2.8,1.434C196.418-220.445,197.829-219.739,198.011-219.671Zm32.556,1.366.637,1.548-.524,2.117a20.121,20.121,0,0,1-8.31,11.611c-2.5,1.685-2.14,1.662-6.511.387-3.21-.911-3.756-1.138-3.187-1.252a17.662,17.662,0,0,0,9.289-5.122c1.07-1.138,1.093-1.161,1.639-.8a1.176,1.176,0,0,0,.911.228c.433-.159.433-.911,0-1.275-.5-.41-.433-.82.341-1.935a29.742,29.742,0,0,0,3.21-7.058c.273-1,.546-1.981.592-2.163C228.769-222.357,229.269-221.356,230.567-218.305ZM75.825-220.377a6.515,6.515,0,0,0,4.28,3.347l.842.137-.911,2.618a42.8,42.8,0,0,1-1.571,4.052l-.683,1.434-1.343-1.525a32.148,32.148,0,0,1-2.413-3.051l-1.07-1.548.615-1.912c.979-2.96,1.5-4.28,1.685-4.28A2.284,2.284,0,0,1,75.825-220.377Zm32.1.82a11.1,11.1,0,0,0,4.872,2.8l1.457.364-2.14,1.707a67.83,67.83,0,0,1-7.581,5.418l-1.912,1.161-2.14-.888a23.9,23.9,0,0,1-6.488-3.984l-1.662-1.366,3.8-1.594c3.529-1.457,3.825-1.548,4.03-1.138a14.834,14.834,0,0,0,4.28,3.779c1.753.82,3.073,1.116,3.392.729.3-.342.2-.41-1.024-.8a15.518,15.518,0,0,1-5.145-2.982c-1.116-1.093-1.366-1.571-.82-1.594a24.62,24.62,0,0,0,3.005-1.343c1.5-.729,2.777-1.343,2.823-1.343A9.31,9.31,0,0,1,107.925-219.557Zm44.121.091,1.73.82.137,1.457c.068.774.182,2.117.25,2.96l.114,1.525-1.3-.592a8.511,8.511,0,0,0-8.583.956l-1,.751-.137-1.047c-.068-.592-.2-2.049-.273-3.256l-.159-2.163.956-.751C146.172-220.7,149-220.923,152.046-219.466Zm-83.37-.546c0,.3-1.821,7.422-1.935,7.513-.159.182-1.457-.729-1.912-1.32a3.882,3.882,0,0,1,1.685-5.942C67.469-220.195,68.676-220.331,68.676-220.012Zm134.093,2c1.821.615,3.347,1.138,3.392,1.161.182.114-1.912,2.641-3.142,3.756a36.861,36.861,0,0,1-5.487,3.825,52.985,52.985,0,0,1-5.3-3.233l-.637-.524,2.686-2.095c1.48-1.161,3.142-2.55,3.711-3.1a3.807,3.807,0,0,1,1.252-.956C199.377-219.147,200.971-218.624,202.769-218.009Zm-34.263-.319c.159,1,.569,5.578.569,6.488,0,.729-.023.729-2.208,1.434a12.932,12.932,0,0,1-4.052.751c-1.821.046-1.821.046-1.776-.524.023-.319.114-2.072.2-3.939l.159-3.347h1.639a8.085,8.085,0,0,0,4.485-1.138C168.256-219.193,168.347-219.17,168.506-218.328Zm-35.242,1.89a11.584,11.584,0,0,0,2.777.706l1.366.159.137,1.047c.182,1.5.569,3.893.706,4.644l.137.66-1.116-.159a22.523,22.523,0,0,1-4.781-1.07l-1.207-.433v-3.21c0-2.459.068-3.165.3-3.073C131.716-217.1,132.49-216.78,133.264-216.438Zm76.54.706a68.539,68.539,0,0,1,9.63,3.665l2.664,1.275-.5.66a20.185,20.185,0,0,1-5.441,4.143,25.732,25.732,0,0,1-5.532,1.8,30.761,30.761,0,0,1-4.895-1.662,6.763,6.763,0,0,1,1.548-.888,19.624,19.624,0,0,0,5.6-4.121c1.616-1.776,2.049-2.413,1.867-2.846-.182-.524-.592-.228-1.844,1.343-2.163,2.664-7.581,6.283-8.9,5.965a31.025,31.025,0,0,1-5.327-2.436.2.2,0,0,1,.2-.2,13.752,13.752,0,0,0,1.981-1.161,23.861,23.861,0,0,0,5.669-5.509,3.27,3.27,0,0,1,.546-.842C207.141-216.552,208.37-216.188,209.8-215.732Zm23.108,4.075c1.184,3.961,1.753,6.716,1.389,6.716-.159,0-.569.66-.933,1.48a6.679,6.679,0,0,1-4.6,4.007c-.592.137-.729.091-.637-.159a.366.366,0,0,0-.091-.433c-.114-.068-.273.091-.341.342-.091.273-.273.433-.41.387-.159-.068-1.639-.5-3.278-.979a23.353,23.353,0,0,1-3.028-.979,6.2,6.2,0,0,1,1.366-.888,19.775,19.775,0,0,0,8.9-11.155c.3-.956.592-1.525.683-1.366S232.457-213.16,232.912-211.657Zm9.243-1.89a3.424,3.424,0,0,1,2.049,3.073,4.762,4.762,0,0,1-.319,1.639c-.41.751-1.844,2.072-2.3,2.072a2.219,2.219,0,0,0-.637.114c-.25.114-.41-.319-.729-1.753-.228-1.047-.637-2.686-.911-3.643-.455-1.571-.478-1.753-.137-1.844A4.428,4.428,0,0,1,242.155-213.547Zm-168.4,1.024a30.383,30.383,0,0,0,2.186,2.982l1.389,1.639-.364.706c-.615,1.207.023,1.776,1.047.933.524-.433.546-.41,2.482,1.138a27.109,27.109,0,0,0,4.644,2.914c2.664,1.32,2.709,1.366,2.072,1.616-.364.137-1.616.592-2.777,1.047l-2.117.8-1.252-.41a17.6,17.6,0,0,1-9.2-7.877l-.706-1.32.751-2.732a14.382,14.382,0,0,1,.888-2.732A7,7,0,0,1,73.753-212.522Zm18.463-.979a3.758,3.758,0,0,1,1.3,1.024c.729.979,3.438,2.823,5.919,3.984l2.072.979-.774.455c-2.436,1.48-4.485,2.39-4.986,2.277-1.639-.433-9.425-6.534-8.924-6.989a41.1,41.1,0,0,1,4.462-2.049A4.34,4.34,0,0,1,92.216-213.5Zm91.293,2c1.024.911,2.254,1.981,2.755,2.368l.888.729-.774.478a3.649,3.649,0,0,1-5.4-2.641c-.114-.842.25-2.573.546-2.573C181.574-213.137,182.485-212.386,183.509-211.5Zm-63.837-.387a5.871,5.871,0,0,1-.364,4.143,3.252,3.252,0,0,1-3.073,1.548c-1.138,0-1.412-.091-1.958-.615l-.615-.615,2.709-2.732c1.5-1.48,2.8-2.709,2.869-2.732C119.331-212.909,119.513-212.454,119.672-211.885Zm32.715-.364c1.912.842,1.935.888,1.753,4.212-.137,2.664-.319,3.347-.615,2.55-.2-.524-2.049-1.48-3.142-1.639a5.319,5.319,0,0,0-4.918,2.14l-.5.751-.342-1.207c-.182-.66-.5-2.049-.706-3.1-.364-1.821-.364-1.935.046-2.368a9.108,9.108,0,0,1,3.142-1.707A9.211,9.211,0,0,1,152.388-212.249ZM66.513-210.86c-.068.228-.41,1.867-.751,3.62-.364,1.753-.683,3.256-.751,3.324-.273.25-2.345-1.389-2.755-2.163a3.671,3.671,0,0,1,.273-3.643,4.494,4.494,0,0,1,3.256-1.594C66.559-211.316,66.65-211.27,66.513-210.86Zm20.125.364a24.937,24.937,0,0,0,7.262,5.76,3.4,3.4,0,0,1,.956.615,39.689,39.689,0,0,1-5.327,2.5c-.751.182-5.919-2.459-8.332-4.257a18.263,18.263,0,0,1-1.821-1.434,47.5,47.5,0,0,1,6.6-4.007A3.006,3.006,0,0,1,86.639-210.5Zm39.272,1.844c.3,3.756.3,3.6-.25,3.665a2.673,2.673,0,0,1-2.573-2.459c0-1.207,1.434-2.96,2.413-2.96C125.683-210.405,125.819-209.745,125.91-208.652Zm50.678-1.3a4.157,4.157,0,0,1,2.732,2.482,3.157,3.157,0,0,1-3.665,3.848c-.546-.068-.546-.091-.615-3.46-.046-2.891,0-3.369.273-3.256C175.5-210.269,176.065-210.086,176.588-209.95Zm-43.62.319a23.3,23.3,0,0,0,3.529.979l2.117.433.546,1.8c.273,1,.774,2.573,1.093,3.46l.569,1.662h-2.186c-2.094,0-6.056-.706-6.329-1.116-.364-.592-1.184-7.763-.911-7.763A11.857,11.857,0,0,1,132.968-209.631Zm36.107,1.548c-.023,3.256-.364,6.6-.729,6.807a26.188,26.188,0,0,1-2.8,1.024,12.129,12.129,0,0,1-4.6.865,15.107,15.107,0,0,1-2.186-.091,31.6,31.6,0,0,1,.774-3.643c.5-1.935.956-4.007,1.024-4.6l.137-1.047,2.094-.023a12.206,12.206,0,0,0,5.327-1.047,4.179,4.179,0,0,1,.8-.342A7,7,0,0,1,169.075-208.083Zm20.649,1.411c.842.546,2.14,1.32,2.869,1.73a4.532,4.532,0,0,1,1.3.911,2.592,2.592,0,0,1-.569.865,3.473,3.473,0,0,1-5.714-.683c-.524-1.024-.25-3.825.387-3.825A12.181,12.181,0,0,1,189.724-206.671Zm-116.017,3.46a17.625,17.625,0,0,0,5.441,4.166l1.707.8-2.345.751a30.49,30.49,0,0,1-3.3.865c-1,.159-1.024.137-2.527-1.252a10.185,10.185,0,0,1-2.186-2.823l-.706-1.412.364-1.685c.2-.933.455-2.095.592-2.573l.228-.888.865,1.457A26.214,26.214,0,0,0,73.707-203.211Zm39.5-2.527a3.262,3.262,0,0,1-.842,3.028,3.574,3.574,0,0,1-4.713.387l-.592-.5.66-.364a29.524,29.524,0,0,0,2.823-1.935,9.755,9.755,0,0,1,2.345-1.5A2.258,2.258,0,0,1,113.207-205.738Zm37.838,0c1.184.5,2.55,1.89,2.55,2.618a8.333,8.333,0,0,1-1.867,4.553c-1.229,1.138-3.643.091-5.191-2.3-1.207-1.867-1.252-2.117-.683-3.051A4.218,4.218,0,0,1,151.044-205.738Zm92.773.433a4.627,4.627,0,0,1,1.343.751,5.268,5.268,0,0,1,1.32,2.777,4.7,4.7,0,0,1-1.844,3.142c-1.024.66-2.709,1.07-2.8.66-.046-.137-.25-1.707-.455-3.506s-.433-3.392-.5-3.574C240.653-205.6,242.5-205.761,243.817-205.305Zm-117.428,2.345c.091.478.341,1.844.592,3.073.228,1.207.433,2.3.433,2.436,0,.364-2.413.319-3.165-.091-.66-.319-.82-.569-1.184-1.8A3.934,3.934,0,0,1,125-203.37C126-203.985,126.229-203.917,126.389-202.961Zm108.823,2.3a27.669,27.669,0,0,1,.3,3.3c-.046.273-.615.159-2.8-.455-3.688-1.047-3.552-.979-2.55-1.32a7.353,7.353,0,0,0,4.3-4.052c.137-.341.273-.592.319-.546A29.057,29.057,0,0,1,235.211-200.661ZM198.1-202.255c1.616.729,3.187,1.434,3.483,1.548l.524.2-.524.774a4.547,4.547,0,0,1-3.552,2.254,2.568,2.568,0,0,1-2.072-.455,3.79,3.79,0,0,1-1.707-3.119c-.023-.979.433-2.527.751-2.527C195.074-203.575,196.463-202.983,198.1-202.255Zm-133.3-.182a10.271,10.271,0,0,1-.228,1.3c-2.208,11.178-2.55,13.068-2.3,13.364.228.273.66.228,2.8-.228a18.278,18.278,0,0,1,2.641-.455c.182.2-.865,2.095-1.594,2.869-2.322,2.345-6.1,1.639-7.763-1.48a6.073,6.073,0,0,1,0-4.8,8.7,8.7,0,0,1,3.62-3.392c1.5-.706,1.594-1.207.319-1.753a3.051,3.051,0,0,1-1.821-2.755,2.978,2.978,0,0,1,2.5-2.641C64.419-202.687,64.806-202.687,64.806-202.437Zm41.64,1.3c1,3.552-1.821,5.851-4.8,3.961-.911-.592-1.753-1.525-1.5-1.707.046-.046,1.207-.66,2.573-1.366,1.389-.729,2.6-1.412,2.732-1.525C105.853-202.186,106.218-201.959,106.445-201.139Zm71.008-.228a3,3,0,0,1,1.457,2.641c0,2.026-1.32,3.278-3.734,3.552l-1.366.182.159-.774c.182-.979.8-5.532.8-5.965C174.767-202.186,176.7-201.913,177.453-201.367ZM134.471-201a11.731,11.731,0,0,0,3.984.546l2.709.068,1.457,3.347c.8,1.867,1.525,3.62,1.662,3.893l.2.546-2.664-.159a36.158,36.158,0,0,1-6.466-.8c-.8-.228-.82-.25-1.525-2.664-.387-1.366-.8-2.869-.911-3.369-.569-2.3-.546-2.231-.114-2.049C133.036-201.549,133.788-201.253,134.471-201Zm33.876,1.912c-.5,3.46-.956,5.578-1.229,5.874a16.9,16.9,0,0,1-4.758,1.594c-1.753.364-5.282.455-5.783.137-.273-.182-.137-.82.774-3.825l1.093-3.643,2.777.114a10.113,10.113,0,0,0,4.348-.387,15.379,15.379,0,0,0,2.14-.82,5.493,5.493,0,0,1,.706-.341A3.265,3.265,0,0,1,168.347-199.09Zm40.524,1.024c.387.114.729.3.729.387,0,.478-1.707,2.345-2.618,2.891a2.374,2.374,0,0,1-1.821.455c-1.548-.3-2.55-2.322-2.277-4.576l.159-1.229,2.55.933C206.981-198.7,208.461-198.2,208.871-198.066Zm-109.529,1.8a4.42,4.42,0,0,1-.159,2c-.5,1.207-2.482,1.753-3.848,1.07a8.22,8.22,0,0,1-2.3-2.368A14.69,14.69,0,0,1,95.95-197C99.228-198.407,99.16-198.407,99.342-196.267Zm115.175.114c3.164,1.024,3.278,1.093,3.278,1.685a3.019,3.019,0,0,1-.524,1.389c-1.707,2.527-4.986,2.368-6.283-.319-.637-1.32-.615-3.8.023-3.8C211.147-197.2,212.718-196.723,214.517-196.153Zm28.3-.046a7.9,7.9,0,0,1,2.755,3.187,7.278,7.278,0,0,1,.182,2.208,4.621,4.621,0,0,1-8.378,2.436c-1.138-1.571-1.024-1.662,1.571-1.594l2.254.068.41-1.093a8.623,8.623,0,0,0,.433-3.324,16.388,16.388,0,0,1,.068-2.208A5.034,5.034,0,0,1,242.815-196.2Zm-114.7.865c.137.546.615,1.89,1.047,2.982a9.434,9.434,0,0,1,.683,2.117,3.37,3.37,0,0,1-.911.25c-2.664.433-4.895-1.685-4.257-4.052a2.738,2.738,0,0,1,1.89-1.935C127.732-196.381,127.846-196.336,128.119-195.334Zm-35.994,1.8c0,1.844-.387,2.777-1.366,3.278a2.645,2.645,0,0,1-2.709-.114c-.911-.455-2.6-2.208-2.459-2.573a35.952,35.952,0,0,1,6.375-2.277A5,5,0,0,1,92.125-193.535Zm131.225.137a31.953,31.953,0,0,1,3.893,1.252c.273.273-1.844,2.254-3.051,2.846-1.662.8-3.825.387-4.462-.865a21.442,21.442,0,0,1-.8-4.485c0-.046.182-.023.387.046C219.525-194.514,221.347-193.968,223.35-193.4Zm-48.264-.5a4.341,4.341,0,0,1,2.732,4.371,4.4,4.4,0,0,1-1.958,2.482,5.689,5.689,0,0,1-3.324.228c-.433-.137-.5-.3-.387-.66.068-.273.455-1.935.865-3.711.592-2.664.8-3.187,1.07-3.028A4.736,4.736,0,0,0,175.086-193.9Zm-37.451,1.5a14.982,14.982,0,0,0,4.508.41l2.6-.046,1.571,3.483a31.476,31.476,0,0,1,1.48,3.62,22.105,22.105,0,0,1-2.8-.159,23.913,23.913,0,0,1-6.716-1.548l-1.07-.41-1.138-2.891c-.637-1.594-1.138-2.96-1.138-3.051s.182-.091.41,0C135.541-192.921,136.588-192.647,137.635-192.4Zm-53.182.342a3.428,3.428,0,0,1-4.895,3.552c-1-.433-2-1.5-2-2.14,0-.182,1.047-.592,2.914-1.116C84.089-192.807,84.294-192.807,84.453-192.055Zm81.913,2.664c-1.07,3.984-.82,3.643-3.142,4.212-1.093.273-2.664.592-3.483.729-1.707.25-5.692.319-5.692.046.023-.091.455-1.594,1-3.347.842-2.709,1.047-3.187,1.412-3.119.25.023,1.571.114,2.937.182a13.335,13.335,0,0,0,6.488-1,4.661,4.661,0,0,1,1.093-.387A19.13,19.13,0,0,1,166.366-189.392Zm68.959-.546a3.534,3.534,0,0,1-.478,1.138,3.29,3.29,0,0,1-5.737.433,5.519,5.519,0,0,1-.546-3.21C228.723-192.01,235.325-190.416,235.325-189.938Zm-158.909.159c0,3.506-4.986,4.872-6.83,1.867a4.581,4.581,0,0,1-.455-.865c0-.114,6.306-1.73,7.012-1.8C76.3-190.6,76.417-190.3,76.417-189.779Zm55.709,4.007c.979,1.912,1.8,3.552,1.844,3.643s-.341.273-.842.41a4.078,4.078,0,0,1-4.8-4.918c.228-.774,1.594-2.6,1.981-2.6C130.327-189.232,131.169-187.662,132.126-185.772Zm9.767,1.116a17.156,17.156,0,0,0,4.121.5l2.3.046,1.366,3.073c1.161,2.664,1.412,3.073,1.867,3.073a.683.683,0,0,0,.706-.569c.091-.319.478-1.594.865-2.869l.706-2.277,1.525.182a25.427,25.427,0,0,0,9.266-1.093c.5-.182.478-.137-.8,3.233l-.888,2.277-1.525.478c-3.233,1-3.916,1.093-8.833,1.093a46.569,46.569,0,0,1-6.352-.3c-2.322-.433-4.462-1.207-4.713-1.685a.71.71,0,0,0-.5-.41,42.685,42.685,0,0,1-3.347-6.261,4.81,4.81,0,0,1,1.207.478A27.421,27.421,0,0,0,141.892-184.656Zm32.192-.41a3.754,3.754,0,0,1,.637,6.01,5.2,5.2,0,0,1-4.918.956l-.706-.228.546-1.411c.273-.774.842-2.413,1.252-3.643.729-2.186.729-2.208,1.457-2.208A4.48,4.48,0,0,1,174.084-185.066ZM136.7-177.394a18.907,18.907,0,0,1,1.981,3.87c-.182.3-2.254.3-3.347,0a4.627,4.627,0,0,1-3.142-3.916,4.512,4.512,0,0,1,1.457-3.028,3.707,3.707,0,0,1,.82-.569C134.539-181.037,135.541-179.4,136.7-177.394Zm7.4-.228c6.875,1.48,13.227,1.525,17.257.114a3.832,3.832,0,0,1,1.024-.3c.023.046-.683,1.616-1.594,3.506l-1.662,3.438-1.616.25a23.014,23.014,0,0,1-10.632-.933c-1.571-.524-1.616-.569-2.641-2.231a25.972,25.972,0,0,1-2.39-4.3C141.938-178.077,142.94-177.872,144.1-177.622Zm25.589.706a5.179,5.179,0,0,1,2.254,2.072,4.351,4.351,0,0,1,.319,1.685c0,2.436-2.208,4.03-4.781,3.483-2-.433-2-.41-.592-3.483.683-1.48,1.366-3.005,1.48-3.347C168.62-177.235,168.757-177.28,169.69-176.916Zm-28.185,7.877c2.094,3.825,2.094,3.939-.068,4.121a3.485,3.485,0,0,1-3.324-1.229,3.231,3.231,0,0,1-.729-3.1c.2-.774,1.8-3.142,2.117-3.142A33.686,33.686,0,0,1,141.505-169.039Zm7.649-1.025a24.745,24.745,0,0,0,7.968.455,8.836,8.836,0,0,1,1.412-.182c.023,0-.569,1.047-1.275,2.3l-1.32,2.277-1.116.182a7.766,7.766,0,0,1-4.622-.751c-1.229-.592-1.48-.842-2.618-2.573-.683-1.07-1.343-2.14-1.48-2.39-.25-.478-.25-.478.592-.114A22.547,22.547,0,0,0,149.155-170.063Zm16.87,1.48a3.458,3.458,0,0,1,1.024,4.8,4.264,4.264,0,0,1-2.96,1.411,7.407,7.407,0,0,1-2.254-.569,63.3,63.3,0,0,1,3.3-6.261A5.628,5.628,0,0,1,166.025-168.583Zm-14.935,3.961a8.653,8.653,0,0,0,2.664.524l1.412.023-.364.569c-1.821,2.8-1.958,2.982-2.254,2.686-.273-.319-2.846-4.28-2.755-4.28C149.815-165.1,150.407-164.873,151.09-164.622Zm-2.982,8.446c.046.387-1.844,1.093-2.891,1.093-2.208,0-3.688-1.8-3.688-4.439a6.516,6.516,0,0,1,1.594-4.189l.751-1.024,2.117,4.212C147.151-158.225,148.108-156.267,148.108-156.176Zm14.366-4.872c1.594,1.594,1.639,3.665.114,5.031a4.1,4.1,0,0,1-1.548.82,3.879,3.879,0,0,1-2.982-.774c-.387-.433-.387-.478.159-1.207.3-.41,1.07-1.639,1.73-2.755a8.018,8.018,0,0,1,1.434-1.981A3.646,3.646,0,0,1,162.473-161.048Zm-5.464,8.036c0,2.732-1.047,4.644-3.051,5.578a4.784,4.784,0,0,1-6.17-1.48,3.3,3.3,0,0,1-.683-2.5,3.437,3.437,0,0,1,.637-2.482c.341-.524.729-.956.842-.956A7.579,7.579,0,0,1,149.7-152.9c.888,1.867.956,1.958,1.548,1.8a10.819,10.819,0,0,0,4.03-2.641c.911-.842,1.457-1.207,1.548-1.047A6.261,6.261,0,0,1,157.009-153.011Z" transform="translate(-9.095 281.003)"/>
      <path id="Path_991" data-name="Path 991" d="M193.16-278.96a47.652,47.652,0,0,0,1.343,10.313,33.579,33.579,0,0,0,8.446,15.527c7.968,8.31,17.189,11.019,31.9,9.38,15.549-1.753,26.614-8.811,32.624-20.808a31.713,31.713,0,0,0,3.483-13.3l.137-3.119h-.615c-.524,0-.592.091-.592.82,0,.751-.046.82-.546.683-.911-.228-5.851-.865-7.308-.956-.751-.023-1.389-.159-1.434-.3-.091-.25-1.867-.364-1.867-.114a14.411,14.411,0,0,0,2.777,3.62,5.1,5.1,0,0,1,1.07,1.116,8.352,8.352,0,0,1-1.32.592c-5.942,2.322-10.222,9.448-9.38,15.549l.182,1.343-.592-.137c-5.327-1.161-7.991-1.343-10.723-.683-3.643.842-7.171,3.483-8.583,6.42l-.66,1.389-.956-1.252a12.369,12.369,0,0,0-4.94-3.483c-3.779-1.411-8.56-1.229-14.616.569-.5.137-.524.091-.524-1.207a14.241,14.241,0,0,0-7.6-12.5,10.613,10.613,0,0,0-1.89-.774c-.228,0-.091-.319.387-1.024a14.634,14.634,0,0,0,2.5-8.036v-1.639h-.683c-.66,0-.683.023-.683,1.116s-.023,1.138-.729,1.3a39.462,39.462,0,0,1-3.939.3,10.747,10.747,0,0,0-3.187.364c0,.3,5.054.41,6.534.137l1.138-.2-.114.979a12.8,12.8,0,0,1-.5,1.89c-.341.82-.455.911-1.434,1.047a26.085,26.085,0,0,0-3.278.8l-2.186.637-.159-.478c-.068-.25-.2-2.14-.273-4.189-.137-3.688-.137-3.688-.66-3.688S193.16-280.918,193.16-278.96Zm71.873-.3c2.095.433,4.03.8,4.326.8.478,0,.5.068.387,1.184a44.621,44.621,0,0,1-.911,5.213,9.932,9.932,0,0,1-2.482-.842,27.951,27.951,0,0,0-3.187-1.138c-1.07-.2-.82-.455.751-.774,2.208-.455,2.436-1,.8-1.958a14.1,14.1,0,0,1-1.776-1.184c-.729-.592-2.049-2.095-1.844-2.095C261.163-280.053,262.939-279.689,265.034-279.256Zm3.3,8.492c.228.228-.683,2.914-1.685,4.895l-.66,1.32-1.3-1a66.627,66.627,0,0,0-6.511-4.417l-1.366-.729,1-.933a14.516,14.516,0,0,1,2.117-1.571l1.093-.637,3.552,1.434A36.915,36.915,0,0,1,268.335-270.764Zm-68.094-1.5c-.387.546-.933,1.252-1.184,1.594-.5.615-.455,1.252.068,1.411.159.068.888.273,1.616.5a4.106,4.106,0,0,1,1.3.524,48.608,48.608,0,0,1-5.4,2.026c-.319.091-1.411-3.165-1.594-4.758l-.114-1.025,2.413-.5c1.32-.3,2.641-.592,2.914-.706a1.5,1.5,0,0,1,.592-.137A3.444,3.444,0,0,1,200.241-272.267Zm58.669,3.87c1.343.888,3.392,2.322,4.553,3.187l2.117,1.594-.524.82a34.493,34.493,0,0,1-5.145,6.693l-1.48,1.525-1.616-1.138c-2.55-1.776-3.119-2.345-3.347-3.3a14.079,14.079,0,0,1,.933-7.718,14.94,14.94,0,0,1,1.958-3.3C256.428-270.036,257.566-269.307,258.909-268.4Zm-54.3,1.8,1.093.933-1.184.546c-2.049.956-5.783,3.916-5.4,4.3a10.942,10.942,0,0,0,2.277-1.32c1.207-.774,2.755-1.73,3.46-2.14l1.275-.706.546.706a12.5,12.5,0,0,1,1.5,2.777c.182.5.137.615-.433.911a32.818,32.818,0,0,0-3.187,2.39c-1.366,1.116-2.55,2.049-2.618,2.049-.524,0-5.578-8.97-5.236-9.311a29.115,29.115,0,0,1,2.869-.979c1.525-.5,2.823-.933,2.891-1C202.791-267.759,203.656-267.418,204.612-266.6Zm4.348,8.332a12.072,12.072,0,0,1-.114,2.8,3.127,3.127,0,0,1-1.411,2.618,6.79,6.79,0,0,1-1.275,1.024,19.439,19.439,0,0,1-1.958-1.844l-1.821-1.821.911-.82c1.571-1.366,5.213-3.688,5.373-3.392A6.313,6.313,0,0,1,208.96-258.266Zm37.291-.023c.478.091.8.25.729.364a52.6,52.6,0,0,0,4.6,7.24l.546.592-1.707.842c-.956.455-1.753.842-1.8.842a19.5,19.5,0,0,1-1.412-1.662c-.729-.888-2.482-3.005-3.916-4.667a27.5,27.5,0,0,1-2.5-3.142C241.2-258.289,244.7-258.539,246.251-258.289Zm4.895,1.116c1.981.637,2.5.683,2.618.3.046-.137.911.433,1.958,1.3,2.163,1.867,2.231,1.616-.933,3.8-1.89,1.275-2.094,1.366-2.3.979-.41-.66-2.322-3.506-3.711-5.441l-1.275-1.8.956.159A19.975,19.975,0,0,1,251.146-257.173Zm-9.038,2.277c1.161,1.5,2.869,3.62,3.8,4.713a26.554,26.554,0,0,1,1.662,2.094,23.241,23.241,0,0,1-4.235,1.48l-1.639.433-.729-1.73c-.387-.979-1.48-3.21-2.413-4.963-1.3-2.527-1.616-3.278-1.389-3.46a14.523,14.523,0,0,1,2.8-1.343C239.991-257.651,240.97-256.4,242.108-254.9Zm-23.176-.751c-.137.159-1.025,2.231-1.981,4.622-.956,2.368-1.821,4.394-1.912,4.485a6.474,6.474,0,0,1-2.094-.751l-1.958-.933.546-1.5a18.1,18.1,0,0,1,2.55-4.826c.524-.637.865-.8,2.208-1.047C218.476-255.989,219.228-255.989,218.932-255.648Zm4.508.068c.114.068.046.478-.137.911a79.465,79.465,0,0,0-2.026,7.786c-.3,1.412-.5,1.89-.774,1.89a28.469,28.469,0,0,1-4.052-.933c-.729-.228-.729-.25-.433-.842a81.52,81.52,0,0,0,3.643-8.97C219.5-255.989,223.007-255.853,223.44-255.579Zm14.548,3.324c.729,1.685,1.685,3.734,2.095,4.553.433.8.8,1.525.842,1.594.114.25-4.735.979-4.963.751a23.065,23.065,0,0,1-2.049-5.737l-.273-1.639.842-1.138c.911-1.252,1.707-1.912,1.981-1.639C236.553-255.42,237.236-253.963,237.987-252.256Zm-11.975-2.413a10.094,10.094,0,0,1,2.049,1.275c.729.592.82.751.524.979-.842.637-1.412,5.009-.933,7.171l.159.774-2.982-.114a21.918,21.918,0,0,1-3.119-.25,16.407,16.407,0,0,1,.774-3.051c.5-1.594,1.138-3.916,1.412-5.145a6.827,6.827,0,0,1,.729-2.208A7.1,7.1,0,0,1,226.012-254.669Zm-13.045-.023a13.519,13.519,0,0,1-.729,1.3,16.42,16.42,0,0,0-1.32,2.96l-.592,1.8-1.48-1c-2.231-1.5-2.231-1.457-.615-2.869a9.008,9.008,0,0,1,2.777-1.73C212.375-254.737,212.967-254.874,212.967-254.692Zm17.28,3.939c.41.729.82,1.48.911,1.662a1.1,1.1,0,0,0,.66.41c.364.068.524-.068.637-.569.068-.341.25-1,.387-1.434l.25-.8.182,1.366a10.249,10.249,0,0,0,1.229,3.961,3.961,3.961,0,0,1,.478,1.07,40.247,40.247,0,0,1-5.441.546h-1.07l-.159-1.3c-.228-1.821.5-6.215,1.024-6.215A5.081,5.081,0,0,1,230.247-250.753Z" transform="translate(-90.551 280.987)"/>
      <path id="Path_992" data-name="Path 992" d="M307.713-251c-.159.25.706.933,4.781,3.847,2.345,1.662,3.256,2.208,3.46,2.026a.82.82,0,0,0,.3-.41,67.127,67.127,0,0,0-6.534-4.485A5.106,5.106,0,0,0,307.713-251Z" transform="translate(-144.204 266.955)"/>
      <path id="Path_993" data-name="Path 993" d="M221.428-279.8a20.487,20.487,0,0,0,5.942,14.047,21.134,21.134,0,0,0,23.29,4.1,22.986,22.986,0,0,0,9.767-8.424,22.03,22.03,0,0,0,3.119-9.9c0-.956-.023-1-.683-1-.615,0-.683.068-.683.729v.751l-1.981-.114c-1.89-.114-3.233-.546-3.6-1.138a1.622,1.622,0,0,0-.979-.228h-.82l1,1.047c.569.592.911,1.093.774,1.161a6.71,6.71,0,0,0-2.686,2.573,5.95,5.95,0,0,0-.524,4.143l.182.842-.729-.364a5.078,5.078,0,0,0-6.6,2.254l-.455.888-.592-.729a5.745,5.745,0,0,0-6.42-1.3,9.139,9.139,0,0,0-3.233,2.982l-.455.729.137-1.07c.41-2.914-2.117-6.306-4.713-6.329-.751,0-.8-.228-.2-.774a7.086,7.086,0,0,0,1.434-5.259c-.159-.546-.341-.706-.888-.751l-.706-.068.114,1.457a5.636,5.636,0,0,1-3.392,5.942c-1.48.615-1.662.729-1.685,1.07-.068.911-.137.933-.546.182a18.862,18.862,0,0,1-1.525-6.42l-.137-2.208h-1.525ZM261.5-276.04a21.223,21.223,0,0,1-2.891,6.192c-.637.751-.66.751-1.434.433a5.311,5.311,0,0,1-2.5-2.8,4.577,4.577,0,0,1,4.508-5.828c1.343.046,2.527-.3,2.573-.751.023-.137.091.023.137.364A8.7,8.7,0,0,1,261.5-276.04Zm-29.391,4.007a4.208,4.208,0,0,1,1.844,3.324,12.435,12.435,0,0,1-.592,2.732c-.5,1.5-.569,1.89-.319,2.186a1.007,1.007,0,0,0,.592.341c.182,0,.319.091.319.228,0,.319-.137.3-.979-.137a19.236,19.236,0,0,1-6.784-6.079c-.82-1.252-.865-1.411-.5-1.548a2.442,2.442,0,0,0,.751-.546C227.552-272.9,230.42-273.149,232.105-272.033Zm21.878,2.436a16.064,16.064,0,0,0,2.459,1.275c.273.091.5.2.5.3,0,.364-2.5,2.573-4.03,3.529-1.411.911-5.031,2.573-5.168,2.368a29.838,29.838,0,0,1-.888-4.918,3.955,3.955,0,0,1,4.052-3.688C251.866-270.736,252.344-270.554,253.984-269.6Zm-11.247.25a4.93,4.93,0,0,1,1.571,1.116,3.125,3.125,0,0,1,1.047,2.277,8.389,8.389,0,0,0,.592,2.095c1.047,1.821,1.047,1.821.729,2.026-1.116.683-6.989.683-9.585,0-1.8-.455-3.324-1.138-2.664-1.161.2,0,.774-.8,1.411-2,1.662-3.165,2.345-3.916,4.007-4.508A4.181,4.181,0,0,1,242.737-269.347Zm-8.583,4.735c-.137.41-.319.683-.387.615a1.644,1.644,0,0,1,.182-.82C234.313-265.727,234.473-265.568,234.154-264.612Z" transform="translate(-103.793 281.003)"/>
      <path id="Path_994" data-name="Path 994" d="M245.178-280.46A8.176,8.176,0,0,0,249.025-276a8.541,8.541,0,0,0,5.783.387A8.343,8.343,0,0,0,259-279.458a11.1,11.1,0,0,0,.615-1.366c0-.068-.341-.137-.774-.137-.637,0-.8.091-.911.592-.273,1.025-2.6,3.142-3.848,3.483a6.822,6.822,0,0,1-4.417-.387,7.014,7.014,0,0,1-2.846-2.937c-.228-.637-.387-.751-1.047-.751C245.087-280.961,245.018-280.915,245.178-280.46Z" transform="translate(-114.884 280.983)"/>
    </g>
  </g>
</svg>
